<?xml version="1.0" encoding="UTF-8" standalone="no"?>
<!-- Created with Inkscape (http://www.inkscape.org/) -->

<svg
   width="179.51979mm"
   height="228.60001mm"
   viewBox="0 0 179.51979 228.60001"
   version="1.1"
   id="svg1"
   xml:space="preserve"
   xmlns="http://www.w3.org/2000/svg"
   xmlns:svg="http://www.w3.org/2000/svg"><defs
     id="defs1"><marker
       style="overflow:visible"
       id="marker25"
       refX="0"
       refY="0"
       orient="auto-start-reverse"
       markerWidth="1"
       markerHeight="1"
       viewBox="0 0 1 1"
       preserveAspectRatio="xMidYMid"><path
         transform="scale(0.5)"
         style="fill:context-stroke;fill-rule:evenodd;stroke:context-stroke;stroke-width:1pt"
         d="M 5.77,0 -2.88,5 V -5 Z"
         id="path25" /></marker><marker
       style="overflow:visible"
       id="marker22"
       refX="0"
       refY="0"
       orient="auto-start-reverse"
       markerWidth="1"
       markerHeight="1"
       viewBox="0 0 1 1"
       preserveAspectRatio="xMidYMid"><path
         transform="scale(0.5)"
         style="fill:context-stroke;fill-rule:evenodd;stroke:context-stroke;stroke-width:1pt"
         d="M 5.77,0 -2.88,5 V -5 Z"
         id="path22" /></marker><marker
       style="overflow:visible"
       id="marker12"
       refX="0"
       refY="0"
       orient="auto-start-reverse"
       markerWidth="1.001"
       markerHeight="1.001"
       viewBox="0 0 1 1"
       preserveAspectRatio="xMidYMid"><path
         transform="scale(0.5)"
         style="fill:context-stroke;fill-rule:evenodd;stroke:context-stroke;stroke-width:1pt"
         d="M 5.77,0 -2.88,5 V -5 Z"
         id="path12" /></marker><marker
       style="overflow:visible"
       id="marker20"
       refX="0"
       refY="0"
       orient="auto-start-reverse"
       markerWidth="1"
       markerHeight="1"
       viewBox="0 0 1 1"
       preserveAspectRatio="xMidYMid"><path
         transform="scale(0.5)"
         style="fill:context-stroke;fill-rule:evenodd;stroke:context-stroke;stroke-width:1pt"
         d="M 5.77,0 -2.88,5 V -5 Z"
         id="path20" /></marker><marker
       style="overflow:visible"
       id="marker19"
       refX="0"
       refY="0"
       orient="auto-start-reverse"
       markerWidth="1"
       markerHeight="1"
       viewBox="0 0 1 1"
       preserveAspectRatio="xMidYMid"><path
         transform="scale(0.5)"
         style="fill:context-stroke;fill-rule:evenodd;stroke:context-stroke;stroke-width:1pt"
         d="M 5.77,0 -2.88,5 V -5 Z"
         id="path19" /></marker><marker
       style="overflow:visible"
       id="Triangle"
       refX="0"
       refY="0"
       orient="auto-start-reverse"
       markerWidth="1"
       markerHeight="1"
       viewBox="0 0 1 1"
       preserveAspectRatio="xMidYMid"><path
         transform="scale(0.5)"
         style="fill:context-stroke;fill-rule:evenodd;stroke:context-stroke;stroke-width:1pt"
         d="M 5.77,0 -2.88,5 V -5 Z"
         id="path135" /></marker><marker
       style="overflow:visible"
       id="marker12-2"
       refX="0"
       refY="0"
       orient="auto-start-reverse"
       markerWidth="1.001"
       markerHeight="1.001"
       viewBox="0 0 1 1"
       preserveAspectRatio="xMidYMid"><path
         transform="scale(0.5)"
         style="fill:context-stroke;fill-rule:evenodd;stroke:context-stroke;stroke-width:1pt"
         d="M 5.77,0 -2.88,5 V -5 Z"
         id="path12-1" /></marker></defs><g
     id="layer2"
     transform="translate(-12.567708,-41.539581)"><rect
       style="opacity:0.86;fill:#9bd7f1;fill-opacity:0.680778;stroke:none;stroke-width:0.463878;stroke-dasharray:none;stroke-dashoffset:0;stroke-opacity:1"
       id="rect19"
       width="179.51979"
       height="228.60001"
       x="12.567708"
       y="41.539581" /><path
       d="m 251.76693,601.01003 v -1.17187 l 4.88931,-6.11327 q 0.52083,-0.65104 0.98958,-1.13281 h -5.32551 v -1.1263 h 6.83592 v 1.1263 l -5.35806,6.62108 -0.57942,0.67057 h 6.09373 v 1.1263 z"
       id="text16-5-1-6"
       style="font-size:13.3333px;font-family:Arial;-inkscape-font-specification:'Arial, Normal';letter-spacing:1.6px;white-space:pre;shape-padding:5.5;fill:none;stroke:#000000;stroke-width:2.28661"
       transform="matrix(0.26458333,0,0,0.26458333,26.122457,-104.86032)"
       aria-label="Z" /><g
       id="text16-5-3"
       style="font-size:13.3333px;font-family:Arial;-inkscape-font-specification:'Arial, Normal';letter-spacing:1.6px;white-space:pre;shape-padding:5.5;fill:none;stroke:#000000;stroke-width:2.28661"
       transform="matrix(0.26458333,0,0,0.26458333,69.868629,90.050086)"
       aria-label="PLATFORM OF SURVEYED QUALISYS MARKERS"><path
         d="m 252.52864,601.01003 v -9.54425 h 3.60025 q 0.95052,0 1.45182,0.0911 0.70313,0.11718 1.17839,0.44922 0.47526,0.32552 0.76171,0.91796 0.29297,0.59245 0.29297,1.30208 0,1.21745 -0.77474,2.0638 -0.77473,0.83984 -2.79947,0.83984 h -2.44791 v 3.8802 z m 1.26302,-5.0065 h 2.46744 q 1.22396,0 1.73828,-0.45573 0.51432,-0.45573 0.51432,-1.28255 0,-0.59895 -0.30599,-1.02213 -0.29948,-0.42969 -0.79427,-0.5664 -0.31901,-0.0846 -1.17838,-0.0846 h -2.4414 z m 9.17811,5.0065 v -9.54425 h 1.26301 v 8.41795 h 4.70051 v 1.1263 z m 8.01925,0 3.66536,-9.54425 h 1.36067 l 3.90624,9.54425 h -1.4388 l -1.11328,-2.89062 h -3.99087 l -1.04818,2.89062 z m 2.7539,-3.91926 h 3.23567 l -0.99609,-2.64322 q -0.45573,-1.20443 -0.67708,-1.97917 -0.18229,0.91797 -0.51432,1.82292 z m 10.22628,3.91926 v -8.41795 h -3.14452 v -1.1263 h 7.56508 v 1.1263 h -3.15754 v 8.41795 z m 7.38123,0 v -9.54425 h 6.43879 v 1.1263 h -5.17577 v 2.95572 h 4.47916 v 1.1263 h -4.47916 v 4.33593 z m 9.2953,-4.64843 q 0,-2.37629 1.27604,-3.71744 1.27603,-1.34765 3.29426,-1.34765 1.32161,0 2.3828,0.63151 1.0612,0.63151 1.61458,1.76432 0.5599,1.1263 0.5599,2.55859 0,1.45182 -0.58594,2.59765 -0.58593,1.14583 -1.66015,1.73827 -1.07422,0.58594 -2.3177,0.58594 -1.34765,0 -2.40885,-0.65104 -1.0612,-0.65104 -1.60807,-1.77734 -0.54687,-1.1263 -0.54687,-2.38281 z m 1.30208,0.0195 q 0,1.72526 0.92447,2.72135 0.93099,0.98958 2.33073,0.98958 1.42578,0 2.34374,-1.0026 0.92448,-1.0026 0.92448,-2.84504 0,-1.16537 -0.39714,-2.03125 -0.39062,-0.87239 -1.15234,-1.34765 -0.7552,-0.48177 -1.69921,-0.48177 -1.34114,0 -2.31119,0.92448 -0.96354,0.91796 -0.96354,3.0729 z m 11.07263,4.6289 v -9.54425 h 4.23176 q 1.27604,0 1.9401,0.26042 0.66406,0.2539 1.0612,0.90494 0.39713,0.65104 0.39713,1.4388 0,1.01562 -0.65755,1.71224 -0.65755,0.69661 -2.03124,0.88541 0.5013,0.24089 0.76171,0.47526 0.55339,0.50781 1.04818,1.26953 l 1.66015,2.59765 h -1.58854 l -1.26302,-1.98567 q -0.55338,-0.85938 -0.91145,-1.3151 -0.35807,-0.45573 -0.64453,-0.63802 -0.27995,-0.18229 -0.57292,-0.25391 -0.21484,-0.0456 -0.70312,-0.0456 h -1.46484 v 4.23827 z m 1.26302,-5.33202 h 2.71484 q 0.86588,0 1.35416,-0.17578 0.48828,-0.18229 0.74218,-0.57292 0.25391,-0.39713 0.25391,-0.85937 0,-0.67708 -0.49479,-1.11328 -0.48828,-0.43619 -1.54948,-0.43619 h -3.02082 z m 9.90727,5.33202 v -9.54425 h 1.90104 l 2.25911,6.7578 q 0.31249,0.94401 0.45572,1.41275 0.16276,-0.52083 0.50781,-1.52994 l 2.28516,-6.64061 h 1.69921 V 601.01 h -1.21745 v -7.98826 L 329.3079,601.01 h -1.13932 l -2.76041,-8.12498 V 601.01 Z m 17.66611,-4.64843 q 0,-2.37629 1.27604,-3.71744 1.27604,-1.34765 3.29426,-1.34765 1.32161,0 2.38281,0.63151 1.06119,0.63151 1.61458,1.76432 0.55989,1.1263 0.55989,2.55859 0,1.45182 -0.58593,2.59765 -0.58594,1.14583 -1.66016,1.73827 -1.07421,0.58594 -2.3177,0.58594 -1.34765,0 -2.40885,-0.65104 -1.06119,-0.65104 -1.60807,-1.77734 -0.54687,-1.1263 -0.54687,-2.38281 z m 1.30208,0.0195 q 0,1.72526 0.92448,2.72135 0.93098,0.98958 2.33072,0.98958 1.42578,0 2.34374,-1.0026 0.92448,-1.0026 0.92448,-2.84504 0,-1.16537 -0.39713,-2.03125 -0.39063,-0.87239 -1.15234,-1.34765 -0.75521,-0.48177 -1.69922,-0.48177 -1.34114,0 -2.31119,0.92448 -0.96354,0.91796 -0.96354,3.0729 z m 11.11821,4.6289 v -9.54425 h 6.43878 v 1.1263 h -5.17576 v 2.95572 h 4.47915 v 1.1263 h -4.47915 v 4.33593 z m 14.55413,-3.0664 1.19141,-0.10417 q 0.0846,0.71615 0.39062,1.17839 0.3125,0.45572 0.96354,0.74218 0.65104,0.27995 1.46484,0.27995 0.72266,0 1.27604,-0.21484 0.55338,-0.21485 0.82031,-0.58594 0.27344,-0.3776 0.27344,-0.82031 0,-0.44922 -0.26042,-0.78125 -0.26042,-0.33854 -0.85937,-0.5664 -0.38412,-0.14974 -1.69922,-0.46224 -1.3151,-0.31901 -1.84244,-0.59896 -0.68359,-0.35807 -1.02213,-0.88541 -0.33203,-0.53386 -0.33203,-1.19141 0,-0.72265 0.41015,-1.34765 0.41016,-0.63151 1.19792,-0.95703 0.78775,-0.32552 1.75129,-0.32552 1.0612,0 1.86849,0.34505 0.8138,0.33854 1.24999,1.0026 0.4362,0.66407 0.46875,1.50391 l -1.21093,0.0911 q -0.0977,-0.90494 -0.66406,-1.36718 -0.5599,-0.46224 -1.66015,-0.46224 -1.14583,0 -1.67318,0.42318 -0.52083,0.41666 -0.52083,1.00911 0,0.51432 0.37109,0.84635 0.36459,0.33203 1.90104,0.68359 1.54297,0.34505 2.11588,0.60547 0.83333,0.38411 1.23047,0.97656 0.39713,0.58594 0.39713,1.35416 0,0.76172 -0.4362,1.4388 -0.43619,0.67057 -1.2565,1.04818 -0.8138,0.37109 -1.83594,0.37109 -1.29557,0 -2.17447,-0.3776 -0.87239,-0.37761 -1.37369,-1.13281 -0.49479,-0.76172 -0.52084,-1.71875 z m 17.1859,-6.47785 h 1.26302 v 5.51431 q 0,1.4388 -0.32552,2.28515 -0.32552,0.84635 -1.17839,1.38021 -0.84635,0.52734 -2.22655,0.52734 -1.34115,0 -2.19401,-0.46224 -0.85286,-0.46224 -1.21744,-1.33463 -0.36459,-0.87891 -0.36459,-2.39583 v -5.51431 h 1.26302 v 5.5078 q 0,1.24349 0.22787,1.83593 0.23437,0.58594 0.79426,0.90495 0.56641,0.31901 1.38021,0.31901 1.39323,0 1.98567,-0.63151 0.59245,-0.63151 0.59245,-2.42838 z m 4.98541,9.54425 v -9.54425 h 4.23176 q 1.27603,0 1.9401,0.26042 0.66406,0.2539 1.06119,0.90494 0.39713,0.65104 0.39713,1.4388 0,1.01562 -0.65755,1.71224 -0.65755,0.69661 -2.03124,0.88541 0.5013,0.24089 0.76172,0.47526 0.55338,0.50781 1.04817,1.26953 l 1.66015,2.59765 h -1.58853 l -1.26302,-1.98567 q -0.55339,-0.85938 -0.91146,-1.3151 -0.35807,-0.45573 -0.64453,-0.63802 -0.27995,-0.18229 -0.57291,-0.25391 -0.21485,-0.0456 -0.70313,-0.0456 h -1.46484 v 4.23827 z m 1.26301,-5.33202 h 2.71484 q 0.86588,0 1.35416,-0.17578 0.48828,-0.18229 0.74219,-0.57292 0.2539,-0.39713 0.2539,-0.85937 0,-0.67708 -0.49479,-1.11328 -0.48828,-0.43619 -1.54947,-0.43619 h -3.02083 z m 12.4333,5.33202 -3.6979,-9.54425 h 1.36718 l 2.48046,6.93358 q 0.29948,0.83333 0.5013,1.56249 0.22136,-0.78124 0.51433,-1.56249 l 2.57811,-6.93358 h 1.28906 l -3.73697,9.54425 z m 7.7914,0 v -9.54425 h 6.90102 v 1.1263 h -5.638 v 2.92317 h 5.27993 v 1.11979 h -5.27993 v 3.24869 h 5.85936 v 1.1263 z m 13.15596,0 v -4.04296 l -3.67838,-5.50129 h 1.53646 l 1.88151,2.8776 q 0.52083,0.80729 0.97004,1.61458 0.42969,-0.7487 1.04167,-1.6862 l 1.84895,-2.80598 h 1.47135 l -3.80858,5.50129 v 4.04296 z m 7.83046,0 v -9.54425 h 6.90102 v 1.1263 h -5.63801 v 2.92317 h 5.27994 v 1.11979 h -5.27994 v 3.24869 h 5.85936 v 1.1263 z m 10.46717,0 v -9.54425 h 3.28775 q 1.11328,0 1.69921,0.13672 0.82031,0.1888 1.39974,0.68359 0.7552,0.63802 1.1263,1.63411 0.3776,0.98958 0.3776,2.26562 0,1.08724 -0.25391,1.92708 -0.2539,0.83984 -0.65104,1.39323 -0.39713,0.54687 -0.87239,0.86588 -0.46875,0.3125 -1.13932,0.47526 -0.66406,0.16276 -1.52994,0.16276 z m 1.26301,-1.1263 h 2.03776 q 0.94401,0 1.47786,-0.17578 0.54036,-0.17578 0.85937,-0.49479 0.44922,-0.44922 0.69661,-1.20443 0.25391,-0.76171 0.25391,-1.84244 0,-1.49739 -0.49479,-2.29817 -0.48828,-0.80729 -1.1914,-1.08073 -0.50781,-0.19531 -1.63411,-0.19531 h -2.00521 z"
         id="path26" /><path
         d="m 259.7617,616.65452 q 0.8789,0.60547 1.62109,0.88542 l -0.3711,0.8789 q -1.02864,-0.37109 -2.05077,-1.17187 -1.0612,0.59244 -2.34375,0.59244 -1.29557,0 -2.35025,-0.62499 -1.05468,-0.625 -1.6276,-1.75781 -0.5664,-1.13281 -0.5664,-2.55208 0,-1.41276 0.57291,-2.57161 0.57292,-1.15885 1.6276,-1.76432 1.0612,-0.60546 2.36979,-0.60546 1.32161,0 2.3828,0.63151 1.0612,0.62499 1.61458,1.7578 0.5599,1.1263 0.5599,2.54557 0,1.17838 -0.35808,2.12239 -0.35807,0.9375 -1.08072,1.63411 z m -2.77994,-1.61458 q 1.09374,0.30599 1.80338,0.91146 1.11328,-1.01562 1.11328,-3.05338 0,-1.15885 -0.39714,-2.02473 -0.39062,-0.86589 -1.15234,-1.34115 -0.75521,-0.48177 -1.69921,-0.48177 -1.41276,0 -2.34375,0.97005 -0.93098,0.96354 -0.93098,2.88411 0,1.86198 0.91796,2.85807 0.92448,0.99609 2.35677,0.99609 0.67708,0 1.27604,-0.25391 -0.59245,-0.38411 -1.25,-0.54687 z m 13.78096,-6.90753 h 1.26301 v 5.51431 q 0,1.4388 -0.32552,2.28515 -0.32552,0.84635 -1.17838,1.3802 -0.84635,0.52734 -2.22656,0.52734 -1.34114,0 -2.194,-0.46223 -0.85286,-0.46224 -1.21744,-1.33464 -0.36459,-0.8789 -0.36459,-2.39582 v -5.51431 h 1.26302 v 5.5078 q 0,1.24348 0.22786,1.83593 0.23438,0.58594 0.79427,0.90494 0.56641,0.31901 1.38021,0.31901 1.39322,0 1.98567,-0.6315 0.59245,-0.63151 0.59245,-2.42838 z m 3.9177,9.54424 3.66535,-9.54424 h 1.36068 l 3.90624,9.54424 h -1.4388 l -1.11328,-2.89061 h -3.99088 l -1.04817,2.89061 z m 2.7539,-3.91926 h 3.23567 l -0.99609,-2.64322 q -0.45573,-1.20442 -0.67709,-1.97916 -0.18229,0.91797 -0.51432,1.82291 z m 8.7354,3.91926 v -9.54424 h 1.26301 v 8.41795 h 4.70051 v 1.12629 z m 9.28227,0 v -9.54424 h 1.26302 v 9.54424 z m 4.65989,-3.06639 1.1914,-0.10417 q 0.0846,0.71614 0.39062,1.17838 0.3125,0.45573 0.96354,0.74219 0.65104,0.27994 1.46484,0.27994 0.72266,0 1.27604,-0.21484 0.55339,-0.21484 0.82031,-0.58593 0.27344,-0.37761 0.27344,-0.82031 0,-0.44922 -0.26042,-0.78125 -0.26041,-0.33854 -0.85937,-0.56641 -0.38411,-0.14974 -1.69921,-0.46224 -1.3151,-0.31901 -1.84245,-0.59895 -0.68359,-0.35807 -1.02213,-0.88542 -0.33203,-0.53385 -0.33203,-1.1914 0,-0.72265 0.41015,-1.34765 0.41016,-0.63151 1.19792,-0.95703 0.78776,-0.32552 1.7513,-0.32552 1.06119,0 1.86848,0.34505 0.8138,0.33854 1.25,1.0026 0.43619,0.66406 0.46875,1.5039 l -1.21094,0.0911 q -0.0977,-0.90495 -0.66406,-1.36719 -0.55989,-0.46223 -1.66015,-0.46223 -1.14583,0 -1.67317,0.42317 -0.52084,0.41667 -0.52084,1.00911 0,0.51433 0.3711,0.84636 0.36458,0.33203 1.90103,0.68359 1.54297,0.34505 2.11588,0.60547 0.83334,0.38411 1.23047,0.97656 0.39713,0.58593 0.39713,1.35416 0,0.76172 -0.43619,1.4388 -0.4362,0.67057 -1.25651,1.04817 -0.8138,0.37109 -1.83593,0.37109 -1.29557,0 -2.17448,-0.3776 -0.87239,-0.3776 -1.37369,-1.13281 -0.49479,-0.76172 -0.52083,-1.71874 z m 13.61168,3.06639 v -4.04295 l -3.67837,-5.50129 h 1.53645 l 1.88151,2.87759 q 0.52083,0.80729 0.97005,1.61458 0.42968,-0.74869 1.04166,-1.68619 l 1.84896,-2.80598 h 1.47135 l -3.80859,5.50129 v 4.04295 z m 7.37473,-3.06639 1.19141,-0.10417 q 0.0846,0.71614 0.39062,1.17838 0.3125,0.45573 0.96354,0.74219 0.65104,0.27994 1.46484,0.27994 0.72265,0 1.27604,-0.21484 0.55338,-0.21484 0.82031,-0.58593 0.27344,-0.37761 0.27344,-0.82031 0,-0.44922 -0.26042,-0.78125 -0.26042,-0.33854 -0.85937,-0.56641 -0.38412,-0.14974 -1.69922,-0.46224 -1.3151,-0.31901 -1.84244,-0.59895 -0.68359,-0.35807 -1.02213,-0.88542 -0.33203,-0.53385 -0.33203,-1.1914 0,-0.72265 0.41015,-1.34765 0.41016,-0.63151 1.19791,-0.95703 0.78776,-0.32552 1.7513,-0.32552 1.0612,0 1.86849,0.34505 0.8138,0.33854 1.24999,1.0026 0.4362,0.66406 0.46875,1.5039 l -1.21093,0.0911 q -0.0977,-0.90495 -0.66406,-1.36719 -0.5599,-0.46223 -1.66015,-0.46223 -1.14584,0 -1.67318,0.42317 -0.52083,0.41667 -0.52083,1.00911 0,0.51433 0.37109,0.84636 0.36459,0.33203 1.90104,0.68359 1.54296,0.34505 2.11588,0.60547 0.83333,0.38411 1.23047,0.97656 0.39713,0.58593 0.39713,1.35416 0,0.76172 -0.4362,1.4388 -0.43619,0.67057 -1.2565,1.04817 -0.8138,0.37109 -1.83594,0.37109 -1.29557,0 -2.17447,-0.3776 -0.87239,-0.3776 -1.37369,-1.13281 -0.4948,-0.76172 -0.52084,-1.71874 z m 16.18825,3.06639 v -9.54424 h 1.90104 l 2.25911,6.75779 q 0.31249,0.94401 0.45572,1.41276 0.16276,-0.52083 0.50781,-1.52994 l 2.28516,-6.64061 h 1.69921 v 9.54424 h -1.21745 v -7.98826 l -2.77343,7.98826 h -1.13932 l -2.76041,-8.12497 v 8.12497 z m 11.69763,0 3.66535,-9.54424 h 1.36068 l 3.90624,9.54424 h -1.4388 l -1.11328,-2.89061 h -3.99087 l -1.04818,2.89061 z m 2.7539,-3.91926 h 3.23567 l -0.99609,-2.64322 q -0.45573,-1.20442 -0.67709,-1.97916 -0.18229,0.91797 -0.51432,1.82291 z m 8.80701,3.91926 v -9.54424 h 4.23176 q 1.27604,0 1.9401,0.26041 0.66406,0.25391 1.0612,0.90495 0.39713,0.65104 0.39713,1.4388 0,1.01562 -0.65755,1.71223 -0.65755,0.69662 -2.03124,0.88542 0.5013,0.24088 0.76172,0.47526 0.55338,0.50781 1.04817,1.26952 l 1.66015,2.59765 h -1.58854 l -1.26301,-1.98567 q -0.55339,-0.85937 -0.91146,-1.3151 -0.35807,-0.45573 -0.64453,-0.63802 -0.27995,-0.18229 -0.57291,-0.2539 -0.21485,-0.0456 -0.70313,-0.0456 h -1.46484 v 4.23827 z m 1.26302,-5.33201 h 2.71484 q 0.86588,0 1.35416,-0.17578 0.48828,-0.1823 0.74219,-0.57292 0.2539,-0.39713 0.2539,-0.85937 0,-0.67708 -0.49479,-1.11328 -0.48828,-0.4362 -1.54947,-0.4362 h -3.02083 z m 9.89424,5.33201 v -9.54424 h 1.26302 v 4.73306 l 4.73957,-4.73306 h 1.71224 l -4.0039,3.86718 4.17968,5.67706 h -1.66666 l -3.39843,-4.83071 -1.5625,1.52343 v 3.30728 z m 10.57134,0 v -9.54424 h 6.90102 v 1.1263 h -5.638 v 2.92317 h 5.27993 v 1.11979 h -5.27993 v 3.24869 h 5.85936 v 1.12629 z m 10.4867,0 v -9.54424 h 4.23176 q 1.27604,0 1.9401,0.26041 0.66406,0.25391 1.06119,0.90495 0.39714,0.65104 0.39714,1.4388 0,1.01562 -0.65755,1.71223 -0.65755,0.69662 -2.03125,0.88542 0.5013,0.24088 0.76172,0.47526 0.55338,0.50781 1.04817,1.26952 l 1.66016,2.59765 h -1.58854 l -1.26302,-1.98567 q -0.55338,-0.85937 -0.91146,-1.3151 -0.35807,-0.45573 -0.64453,-0.63802 -0.27994,-0.18229 -0.57291,-0.2539 -0.21484,-0.0456 -0.70312,-0.0456 h -1.46484 v 4.23827 z m 1.26302,-5.33201 h 2.71483 q 0.86589,0 1.35417,-0.17578 0.48828,-0.1823 0.74218,-0.57292 0.25391,-0.39713 0.25391,-0.85937 0,-0.67708 -0.49479,-1.11328 -0.48828,-0.4362 -1.54948,-0.4362 h -3.02082 z m 9.51664,2.26562 1.19141,-0.10417 q 0.0846,0.71614 0.39062,1.17838 0.3125,0.45573 0.96354,0.74219 0.65104,0.27994 1.46484,0.27994 0.72265,0 1.27604,-0.21484 0.55338,-0.21484 0.82031,-0.58593 0.27343,-0.37761 0.27343,-0.82031 0,-0.44922 -0.26041,-0.78125 -0.26042,-0.33854 -0.85937,-0.56641 -0.38412,-0.14974 -1.69922,-0.46224 -1.3151,-0.31901 -1.84244,-0.59895 -0.68359,-0.35807 -1.02213,-0.88542 -0.33203,-0.53385 -0.33203,-1.1914 0,-0.72265 0.41015,-1.34765 0.41016,-0.63151 1.19791,-0.95703 0.78776,-0.32552 1.7513,-0.32552 1.0612,0 1.86849,0.34505 0.8138,0.33854 1.24999,1.0026 0.4362,0.66406 0.46875,1.5039 l -1.21093,0.0911 q -0.0977,-0.90495 -0.66406,-1.36719 -0.5599,-0.46223 -1.66016,-0.46223 -1.14583,0 -1.67317,0.42317 -0.52083,0.41667 -0.52083,1.00911 0,0.51433 0.37109,0.84636 0.36459,0.33203 1.90104,0.68359 1.54296,0.34505 2.11588,0.60547 0.83333,0.38411 1.23047,0.97656 0.39713,0.58593 0.39713,1.35416 0,0.76172 -0.4362,1.4388 -0.43619,0.67057 -1.2565,1.04817 -0.8138,0.37109 -1.83594,0.37109 -1.29557,0 -2.17447,-0.3776 -0.87239,-0.3776 -1.3737,-1.13281 -0.49479,-0.76172 -0.52083,-1.71874 z"
         id="path27" /></g><path
       d="m 254.19531,601.01003 -2.53255,-9.54425 h 1.29557 l 1.45182,6.2565 q 0.23437,0.98307 0.40364,1.95312 0.36459,-1.52995 0.42969,-1.76432 l 1.8164,-6.4453 h 1.52344 l 1.36718,4.83072 q 0.51432,1.79687 0.74219,3.3789 0.18229,-0.90495 0.47525,-2.07682 l 1.4974,-6.1328 h 1.26952 l -2.61718,9.54425 h -1.21744 l -2.01171,-7.27212 q -0.25391,-0.91145 -0.29948,-1.11979 -0.14974,0.65755 -0.27995,1.11979 l -2.02474,7.27212 z m 10.97497,0 3.66536,-9.54425 h 1.36067 l 3.90624,9.54425 h -1.4388 l -1.11328,-2.89062 h -3.99087 l -1.04818,2.89062 z m 2.7539,-3.91926 h 3.23567 l -0.99609,-2.64322 q -0.45573,-1.20443 -0.67708,-1.97917 -0.18229,0.91797 -0.51432,1.82292 z m 10.52576,3.91926 -3.69791,-9.54425 h 1.36719 l 2.48046,6.93358 q 0.29948,0.83333 0.5013,1.56249 0.22135,-0.78124 0.51432,-1.56249 l 2.57812,-6.93358 h 1.28906 l -3.73697,9.54425 z m 7.79139,0 v -9.54425 h 6.90102 v 1.1263 h -5.638 v 2.92317 h 5.27993 v 1.11979 h -5.27993 v 3.24869 h 5.85936 v 1.1263 z m 10.4281,0 v -9.54425 h 1.90104 l 2.25911,6.7578 q 0.3125,0.94401 0.45573,1.41275 0.16276,-0.52083 0.50781,-1.52994 l 2.28515,-6.64061 h 1.69921 v 9.54425 h -1.21744 v -7.98826 l -2.77343,7.98826 h -1.13932 l -2.76041,-8.12498 v 8.12498 z m 11.69764,0 3.66535,-9.54425 h 1.36067 l 3.90624,9.54425 h -1.43879 l -1.11328,-2.89062 h -3.99088 l -1.04817,2.89062 z m 2.75389,-3.91926 h 3.23567 l -0.99609,-2.64322 q -0.45573,-1.20443 -0.67708,-1.97917 -0.18229,0.91797 -0.51432,1.82292 z m 8.7354,3.91926 v -9.54425 h 1.26302 v 4.73306 l 4.73957,-4.73306 h 1.71223 l -4.00389,3.86718 4.17967,5.67707 h -1.66666 l -3.39843,-4.83072 -1.56249,1.52344 v 3.30728 z m 10.57133,0 v -9.54425 h 6.90103 v 1.1263 h -5.63801 v 2.92317 h 5.27994 v 1.11979 h -5.27994 v 3.24869 h 5.85936 v 1.1263 z m 10.4867,0 v -9.54425 h 4.23176 q 1.27604,0 1.9401,0.26042 0.66406,0.2539 1.0612,0.90494 0.39713,0.65104 0.39713,1.4388 0,1.01562 -0.65755,1.71224 -0.65755,0.69661 -2.03124,0.88541 0.5013,0.24089 0.76171,0.47526 0.55339,0.50781 1.04818,1.26953 l 1.66015,2.59765 h -1.58854 l -1.26302,-1.98567 q -0.55338,-0.85938 -0.91145,-1.3151 -0.35807,-0.45573 -0.64453,-0.63802 -0.27995,-0.18229 -0.57292,-0.25391 -0.21484,-0.0456 -0.70312,-0.0456 h -1.46484 V 601.01 Z m 1.26302,-5.33202 h 2.71484 q 0.86588,0 1.35416,-0.17578 0.48828,-0.18229 0.74219,-0.57292 0.2539,-0.39713 0.2539,-0.85937 0,-0.67708 -0.49479,-1.11328 -0.48828,-0.43619 -1.54947,-0.43619 h -3.02083 z"
       id="text16-5-1"
       style="font-size:13.3333px;font-family:Arial;-inkscape-font-specification:'Arial, Normal';letter-spacing:1.6px;white-space:pre;shape-padding:5.5;fill:none;stroke:#000000;stroke-width:2.28661"
       transform="matrix(0.26458333,0,0,0.26458333,-39.801167,-105.21243)"
       aria-label="WAVEMAKER" /><path
       d="m 252.47656,601.01003 v -9.54425 h 3.58072 q 1.09375,0 1.7513,0.29297 0.66406,0.28646 1.03515,0.89192 0.3776,0.59896 0.3776,1.25651 0,0.61198 -0.33203,1.15234 -0.33203,0.54037 -1.0026,0.8724 0.86589,0.2539 1.32812,0.86588 0.46875,0.61198 0.46875,1.44531 0,0.67057 -0.28645,1.25 -0.27995,0.57291 -0.69662,0.88541 -0.41666,0.3125 -1.04817,0.47526 -0.625,0.15625 -1.53646,0.15625 z m 1.26302,-5.53384 h 2.06379 q 0.83985,0 1.20443,-0.11068 0.48177,-0.14323 0.72265,-0.47526 0.2474,-0.33203 0.2474,-0.83333 0,-0.47526 -0.22787,-0.83333 -0.22786,-0.36458 -0.65104,-0.49479 -0.42317,-0.13672 -1.45182,-0.13672 h -1.90754 z m 0,4.40754 h 2.37629 q 0.61198,0 0.85938,-0.0456 0.43619,-0.0781 0.72916,-0.26042 0.29297,-0.18229 0.48177,-0.52734 0.1888,-0.35156 0.1888,-0.80729 0,-0.53385 -0.27343,-0.92448 -0.27344,-0.39713 -0.76172,-0.55338 -0.48177,-0.16276 -1.39323,-0.16276 h -2.20702 z m 8.2341,1.1263 3.66535,-9.54425 h 1.36067 l 3.90624,9.54425 h -1.43879 l -1.11328,-2.89062 h -3.99088 l -1.04817,2.89062 z m 2.7539,-3.91926 h 3.23566 l -0.99609,-2.64322 q -0.45573,-1.20443 -0.67708,-1.97917 -0.18229,0.91797 -0.51432,1.82292 z m 8.35779,0.85286 1.1914,-0.10417 q 0.0846,0.71615 0.39063,1.17839 0.3125,0.45572 0.96354,0.74218 0.65104,0.27995 1.46484,0.27995 0.72265,0 1.27604,-0.21484 0.55338,-0.21485 0.82031,-0.58594 0.27343,-0.3776 0.27343,-0.82031 0,-0.44922 -0.26041,-0.78125 -0.26042,-0.33854 -0.85938,-0.5664 -0.38411,-0.14974 -1.69921,-0.46224 -1.3151,-0.31901 -1.84244,-0.59896 -0.6836,-0.35807 -1.02214,-0.88541 -0.33203,-0.53386 -0.33203,-1.19141 0,-0.72265 0.41016,-1.34765 0.41015,-0.63151 1.19791,-0.95703 0.78776,-0.32552 1.7513,-0.32552 1.06119,0 1.86848,0.34505 0.8138,0.33854 1.25,1.0026 0.4362,0.66407 0.46875,1.50391 l -1.21093,0.0911 q -0.0977,-0.90494 -0.66407,-1.36718 -0.55989,-0.46224 -1.66015,-0.46224 -1.14583,0 -1.67317,0.42318 -0.52083,0.41666 -0.52083,1.00911 0,0.51432 0.37109,0.84635 0.36458,0.33203 1.90104,0.68359 1.54296,0.34505 2.11588,0.60547 0.83333,0.38411 1.23046,0.97656 0.39714,0.58594 0.39714,1.35416 0,0.76172 -0.4362,1.4388 -0.4362,0.67057 -1.25651,1.04818 -0.8138,0.37109 -1.83593,0.37109 -1.29557,0 -2.17447,-0.3776 -0.8724,-0.37761 -1.3737,-1.13281 -0.49479,-0.76172 -0.52083,-1.71875 z m 11.13774,3.0664 v -9.54425 h 1.26301 v 9.54425 z m 5.07655,0 v -9.54425 h 1.29557 l 5.01301,7.49347 v -7.49347 h 1.21093 v 9.54425 h -1.29557 l -5.013,-7.49998 v 7.49998 z m 23.3562,-3.34635 1.26302,0.31901 q -0.39714,1.55599 -1.43229,2.3763 -1.02864,0.8138 -2.51953,0.8138 -1.54296,0 -2.51301,-0.625 -0.96354,-0.63151 -1.47135,-1.82291 -0.5013,-1.19141 -0.5013,-2.55859 0,-1.49088 0.5664,-2.59765 0.57292,-1.11328 1.62109,-1.68619 1.05469,-0.57943 2.3177,-0.57943 1.43229,0 2.40885,0.72917 0.97656,0.72916 1.36068,2.05077 l -1.24349,0.29297 q -0.33203,-1.04166 -0.96354,-1.51692 -0.63151,-0.47526 -1.58854,-0.47526 -1.10025,0 -1.84244,0.52734 -0.73568,0.52734 -1.03515,1.41927 -0.29948,0.88541 -0.29948,1.82942 0,1.21745 0.35156,2.1289 0.35807,0.90495 1.10677,1.35416 0.74869,0.44922 1.62109,0.44922 1.06119,0 1.79687,-0.61198 0.73567,-0.61197 0.99609,-1.8164 z m 4.03489,-1.30208 q 0,-2.37629 1.27604,-3.71744 1.27604,-1.34765 3.29426,-1.34765 1.32161,0 2.38281,0.63151 1.06119,0.63151 1.61458,1.76432 0.55989,1.1263 0.55989,2.55859 0,1.45182 -0.58594,2.59765 -0.58593,1.14583 -1.66015,1.73827 -1.07421,0.58594 -2.3177,0.58594 -1.34765,0 -2.40885,-0.65104 -1.06119,-0.65104 -1.60807,-1.77734 -0.54687,-1.1263 -0.54687,-2.38281 z m 1.30208,0.0195 q 0,1.72526 0.92448,2.72135 0.93098,0.98958 2.33072,0.98958 1.42578,0 2.34374,-1.0026 0.92448,-1.0026 0.92448,-2.84504 0,-1.16537 -0.39713,-2.03125 -0.39063,-0.87239 -1.15235,-1.34765 -0.7552,-0.48177 -1.69921,-0.48177 -1.34114,0 -2.31119,0.92448 -0.96354,0.91796 -0.96354,3.0729 z m 10.66899,-0.0195 q 0,-2.37629 1.27604,-3.71744 1.27603,-1.34765 3.29426,-1.34765 1.32161,0 2.38281,0.63151 1.06119,0.63151 1.61457,1.76432 0.5599,1.1263 0.5599,2.55859 0,1.45182 -0.58594,2.59765 -0.58593,1.14583 -1.66015,1.73827 -1.07422,0.58594 -2.3177,0.58594 -1.34765,0 -2.40885,-0.65104 -1.06119,-0.65104 -1.60807,-1.77734 -0.54687,-1.1263 -0.54687,-2.38281 z m 1.30208,0.0195 q 0,1.72526 0.92447,2.72135 0.93099,0.98958 2.33073,0.98958 1.42578,0 2.34374,-1.0026 0.92448,-1.0026 0.92448,-2.84504 0,-1.16537 -0.39714,-2.03125 -0.39062,-0.87239 -1.15234,-1.34765 -0.7552,-0.48177 -1.69921,-0.48177 -1.34114,0 -2.31119,0.92448 -0.96354,0.91796 -0.96354,3.0729 z m 11.07263,4.6289 v -9.54425 h 4.23176 q 1.27604,0 1.9401,0.26042 0.66406,0.2539 1.0612,0.90494 0.39713,0.65104 0.39713,1.4388 0,1.01562 -0.65755,1.71224 -0.65755,0.69661 -2.03124,0.88541 0.5013,0.24089 0.76171,0.47526 0.55339,0.50781 1.04818,1.26953 l 1.66015,2.59765 h -1.58854 l -1.26302,-1.98567 q -0.55338,-0.85938 -0.91145,-1.3151 -0.35807,-0.45573 -0.64453,-0.63802 -0.27995,-0.18229 -0.57292,-0.25391 -0.21484,-0.0456 -0.70312,-0.0456 h -1.46484 v 4.23827 z m 1.26302,-5.33202 h 2.71484 q 0.86588,0 1.35416,-0.17578 0.48828,-0.18229 0.74219,-0.57292 0.2539,-0.39713 0.2539,-0.85937 0,-0.67708 -0.49479,-1.11328 -0.48828,-0.43619 -1.54947,-0.43619 h -3.02083 z m 9.94633,5.33202 v -9.54425 h 3.28775 q 1.11328,0 1.69922,0.13672 0.82031,0.1888 1.39974,0.68359 0.7552,0.63802 1.12629,1.63411 0.37761,0.98958 0.37761,2.26562 0,1.08724 -0.25391,1.92708 -0.2539,0.83984 -0.65104,1.39323 -0.39713,0.54687 -0.87239,0.86588 -0.46875,0.3125 -1.13932,0.47526 -0.66406,0.16276 -1.52995,0.16276 z m 1.26302,-1.1263 h 2.03776 q 0.944,0 1.47786,-0.17578 0.54036,-0.17578 0.85937,-0.49479 0.44922,-0.44922 0.69661,-1.20443 0.25391,-0.76171 0.25391,-1.84244 0,-1.49739 -0.49479,-2.29817 -0.48828,-0.80729 -1.19141,-1.08073 -0.50781,-0.19531 -1.63411,-0.19531 h -2.0052 z m 10.1807,1.1263 v -9.54425 h 1.26302 V 601.01 Z m 5.07656,0 v -9.54425 h 1.29557 l 5.013,7.49347 v -7.49347 h 1.21094 V 601.01 h -1.29557 l -5.01301,-7.49998 V 601.01 Z m 10.19372,0 3.66536,-9.54425 h 1.36067 l 3.90624,9.54425 h -1.43879 l -1.11328,-2.89062 h -3.99088 l -1.04817,2.89062 z m 2.7539,-3.91926 h 3.23567 l -0.99609,-2.64322 q -0.45573,-1.20443 -0.67708,-1.97917 -0.18229,0.91797 -0.51432,1.82292 z m 10.22629,3.91926 v -8.41795 h -3.14452 v -1.1263 h 7.56508 v 1.1263 h -3.15754 V 601.01 Z m 7.34217,0 v -9.54425 h 6.90102 v 1.1263 h -5.638 v 2.92317 h 5.27993 v 1.11979 h -5.27993 v 3.24869 h 5.85936 v 1.1263 z m 10.03748,-3.0664 1.1914,-0.10417 q 0.0846,0.71615 0.39063,1.17839 0.3125,0.45572 0.96354,0.74218 0.65104,0.27995 1.46484,0.27995 0.72265,0 1.27604,-0.21484 0.55338,-0.21485 0.82031,-0.58594 0.27343,-0.3776 0.27343,-0.82031 0,-0.44922 -0.26041,-0.78125 -0.26042,-0.33854 -0.85938,-0.5664 -0.38411,-0.14974 -1.69921,-0.46224 -1.3151,-0.31901 -1.84244,-0.59896 -0.6836,-0.35807 -1.02214,-0.88541 -0.33203,-0.53386 -0.33203,-1.19141 0,-0.72265 0.41016,-1.34765 0.41015,-0.63151 1.19791,-0.95703 0.78776,-0.32552 1.7513,-0.32552 1.0612,0 1.86848,0.34505 0.8138,0.33854 1.25,1.0026 0.4362,0.66407 0.46875,1.50391 l -1.21093,0.0911 q -0.0977,-0.90494 -0.66406,-1.36718 -0.5599,-0.46224 -1.66016,-0.46224 -1.14583,0 -1.67317,0.42318 -0.52083,0.41666 -0.52083,1.00911 0,0.51432 0.37109,0.84635 0.36458,0.33203 1.90104,0.68359 1.54296,0.34505 2.11588,0.60547 0.83333,0.38411 1.23046,0.97656 0.39714,0.58594 0.39714,1.35416 0,0.76172 -0.4362,1.4388 -0.4362,0.67057 -1.25651,1.04818 -0.8138,0.37109 -1.83593,0.37109 -1.29557,0 -2.17447,-0.3776 -0.8724,-0.37761 -1.3737,-1.13281 -0.49479,-0.76172 -0.52083,-1.71875 z"
       id="text16-5-1-9"
       style="font-size:13.3333px;font-family:Arial;-inkscape-font-specification:'Arial, Normal';letter-spacing:1.6px;white-space:pre;shape-padding:5.5;fill:none;stroke:#000000;stroke-width:2.28661"
       transform="matrix(0.26458333,0,0,0.26458333,44.841728,-93.483238)"
       aria-label="BASIN COORDINATES" /><rect
       style="fill:#ebebeb;fill-opacity:1;stroke:none;stroke-width:0.365001"
       id="rect1"
       width="28.310417"
       height="24.738541"
       x="157.16249"
       y="218.81041" /><rect
       style="fill:#030303;fill-opacity:1;stroke:none;stroke-width:0.365001"
       id="rect3"
       width="20.505211"
       height="1.8520966"
       x="164.57083"
       y="219.075" /><rect
       style="fill:#030303;fill-opacity:1;stroke:none;stroke-width:0.365001"
       id="rect7"
       width="1.8520833"
       height="22.754166"
       x="164.56281"
       y="220.66249" /><circle
       style="fill:none;fill-opacity:1;stroke:#000000;stroke-width:0.564999;stroke-dasharray:none;stroke-opacity:1"
       id="path14"
       cx="100.47552"
       cy="52.453644"
       r="2.4473958" /><path
       style="fill:none;fill-opacity:1;stroke:#000000;stroke-width:0.564999;stroke-dasharray:none;stroke-opacity:1;marker-end:url(#marker22)"
       d="m 100.54167,55.033333 c 0,17.065624 0,17.065624 0,17.065624"
       id="path15" /><circle
       style="fill:#030303;fill-opacity:1;stroke:#000000;stroke-width:0.564999;stroke-dasharray:none;stroke-opacity:1"
       id="path23"
       cx="100.47649"
       cy="52.395515"
       r="0.34494472" /><path
       style="fill:#030303;fill-opacity:1;stroke:#000000;stroke-width:0.565;stroke-dasharray:none;stroke-opacity:1;marker-end:url(#marker25)"
       d="m 103.1794,52.384828 c 18.00728,0 18.00728,0 18.00728,0"
       id="path24" /><path
       d="m 251.55859,601.01003 3.6914,-4.97395 -3.2552,-4.5703 h 1.5039 l 1.73177,2.44791 q 0.54036,0.76172 0.76823,1.17187 0.31901,-0.52083 0.7552,-1.08723 l 1.92057,-2.53255 h 1.3737 l -3.35286,4.49869 3.61327,5.04556 h -1.56249 l -2.40234,-3.40494 q -0.20182,-0.29297 -0.41667,-0.63802 -0.31901,0.52083 -0.45573,0.71614 l -2.39582,3.32682 z"
       id="text16-5-1-4"
       style="font-size:13.3333px;font-family:Arial;-inkscape-font-specification:'Arial, Normal';letter-spacing:1.6px;white-space:pre;shape-padding:5.5;fill:none;stroke:#000000;stroke-width:2.28661"
       transform="matrix(0.26458333,0,0,0.26458333,37.234958,-84.090528)"
       aria-label="X" /><path
       d="m 255.21744,601.01003 v -4.04296 l -3.67838,-5.50129 h 1.53646 l 1.8815,2.8776 q 0.52083,0.80729 0.97005,1.61458 0.42969,-0.7487 1.04167,-1.6862 l 1.84895,-2.80598 h 1.47135 l -3.80858,5.50129 v 4.04296 z"
       id="text16-5-1-4-8"
       style="font-size:13.3333px;font-family:Arial;-inkscape-font-specification:'Arial, Normal';letter-spacing:1.6px;white-space:pre;shape-padding:5.5;fill:none;stroke:#000000;stroke-width:2.28661"
       transform="matrix(0.26458333,0,0,0.26458333,59.421372,-104.265)"
       aria-label="Y" /></g><g
     id="layer1"
     transform="translate(-12.567708,-41.539581)"><g
       id="g7"
       transform="rotate(25,-153.34227,378.45116)"><g
         id="g4"
         style="fill:#ecd800;fill-opacity:1;stroke:none"><rect
           style="fill:#ecd800;fill-opacity:1;stroke:none;stroke-width:0.465"
           id="rect2"
           width="12.149381"
           height="79.838776"
           x="37.37381"
           y="40.960766" /><path
           style="fill:#ecd800;fill-opacity:1;stroke:none;stroke-width:0.465"
           id="path3"
           d="m 49.482275,41.30584 a 6.045763,9.8641396 0 0 1 -6.025296,9.864083 6.045763,9.8641396 0 0 1 -6.066091,-9.797297 6.045763,9.8641396 0 0 1 5.984224,-9.930417 6.045763,9.8641396 0 0 1 6.106609,9.730061" /><path
           style="fill:#ecd800;fill-opacity:1;stroke:none;stroke-width:0.46392"
           id="path3-8"
           d="m 49.457245,120.16185 a 6.0173759,9.8646793 0 0 1 -5.997005,9.86462 6.0173759,9.8646793 0 0 1 -6.037609,-9.79783 6.0173759,9.8646793 0 0 1 5.956127,-9.93096 6.0173759,9.8646793 0 0 1 6.077935,9.73059" /></g><rect
         style="fill:#000000;fill-opacity:1;stroke:#000000;stroke-width:0.465;stroke-opacity:1"
         id="rect4"
         width="0.081816934"
         height="15.545455"
         x="43.486359"
         y="31.622728" /><rect
         style="fill:#000000;fill-opacity:1;stroke:#000000;stroke-width:0.465;stroke-opacity:1"
         id="rect4-5"
         width="0.081816934"
         height="15.545455"
         x="43.301731"
         y="114.17615" /><rect
         style="fill:#fbffa8;fill-opacity:1;stroke:none;stroke-width:0.465;stroke-opacity:1"
         id="rect5"
         width="2.0454545"
         height="94.336357"
         x="38.699997"
         y="34.036366" /><rect
         style="fill:#fbffa8;fill-opacity:1;stroke:none;stroke-width:0.465;stroke-opacity:1"
         id="rect5-1"
         width="2.0454545"
         height="94.336357"
         x="45.869431"
         y="34.259586" /><g
         id="g6"
         style="fill:#e9aeea;fill-opacity:1"><rect
           style="fill:#e9aeea;fill-opacity:1;stroke:none;stroke-width:0.465;stroke-opacity:1"
           id="rect6"
           width="3.1909091"
           height="3.1909091"
           x="41.890907"
           y="41.399998" /><rect
           style="fill:#e9aeea;fill-opacity:1;stroke:none;stroke-width:0.465;stroke-opacity:1"
           id="rect6-7"
           width="3.1909091"
           height="3.1909091"
           x="41.70322"
           y="57.681252" /><rect
           style="fill:#e9aeea;fill-opacity:1;stroke:none;stroke-width:0.465;stroke-opacity:1"
           id="rect6-2"
           width="3.1909091"
           height="3.1909091"
           x="41.722347"
           y="73.089767" /><rect
           style="fill:#e9aeea;fill-opacity:1;stroke:none;stroke-width:0.465;stroke-opacity:1"
           id="rect6-1"
           width="3.1909091"
           height="3.1909091"
           x="41.79034"
           y="95.057579" /><rect
           style="fill:#e9aeea;fill-opacity:1;stroke:none;stroke-width:0.465;stroke-opacity:1"
           id="rect6-76"
           width="3.1909091"
           height="3.1909091"
           x="41.746777"
           y="114.74299" /></g><path
         style="fill:#bababa;fill-opacity:1;stroke:none;stroke-width:0.465;stroke-opacity:1"
         id="path6"
         d="m 44.590908,42.988434 a 1.0636363,0.9818182 0 0 1 -1.060036,0.981812 1.0636363,0.9818182 0 0 1 -1.067213,-0.975165 1.0636363,0.9818182 0 0 1 1.05281,-0.988415 1.0636363,0.9818182 0 0 1 1.074341,0.968473" /><path
         style="fill:#bababa;fill-opacity:1;stroke:none;stroke-width:0.465;stroke-opacity:1"
         id="path6-2"
         d="m 44.336418,59.156986 a 1.0636363,0.9818182 0 0 1 -1.060036,0.981813 1.0636363,0.9818182 0 0 1 -1.067213,-0.975165 1.0636363,0.9818182 0 0 1 1.05281,-0.988415 1.0636363,0.9818182 0 0 1 1.074341,0.968473" /><path
         style="fill:#bababa;fill-opacity:1;stroke:none;stroke-width:0.465;stroke-opacity:1"
         id="path6-4"
         d="m 44.361103,74.651695 a 1.0636363,0.9818182 0 0 1 -1.060036,0.981813 1.0636363,0.9818182 0 0 1 -1.067213,-0.975165 1.0636363,0.9818182 0 0 1 1.05281,-0.988415 1.0636363,0.9818182 0 0 1 1.074341,0.968473" /><path
         style="fill:#bababa;fill-opacity:1;stroke:none;stroke-width:0.465;stroke-opacity:1"
         id="path6-3"
         d="m 44.567832,96.645279 a 1.0636363,0.9818182 0 0 1 -1.060035,0.981813 1.0636363,0.9818182 0 0 1 -1.067213,-0.975166 1.0636363,0.9818182 0 0 1 1.05281,-0.988415 1.0636363,0.9818182 0 0 1 1.074341,0.968473" /><path
         style="fill:#bababa;fill-opacity:1;stroke:none;stroke-width:0.465;stroke-opacity:1"
         id="path6-1"
         d="m 44.460605,116.36484 a 1.0636363,0.9818182 0 0 1 -1.060035,0.98181 1.0636363,0.9818182 0 0 1 -1.067213,-0.97516 1.0636363,0.9818182 0 0 1 1.05281,-0.98842 1.0636363,0.9818182 0 0 1 1.074341,0.96847" /></g><g
       id="g7-4"
       transform="matrix(-0.90630779,0.42261826,0.42261826,0.90630779,57.784916,99.194187)"><g
         id="g4-2"
         style="fill:#ecd800;fill-opacity:1;stroke:none"><rect
           style="fill:#ecd800;fill-opacity:1;stroke:none;stroke-width:0.465"
           id="rect2-7"
           width="12.149381"
           height="79.838776"
           x="37.37381"
           y="40.960766" /><path
           style="fill:#ecd800;fill-opacity:1;stroke:none;stroke-width:0.465"
           id="path3-7"
           d="m 49.482275,41.30584 a 6.045763,9.8641396 0 0 1 -6.025296,9.864083 6.045763,9.8641396 0 0 1 -6.066091,-9.797297 6.045763,9.8641396 0 0 1 5.984224,-9.930417 6.045763,9.8641396 0 0 1 6.106609,9.730061" /><path
           style="fill:#ecd800;fill-opacity:1;stroke:none;stroke-width:0.46392"
           id="path3-8-9"
           d="m 49.457245,120.16185 a 6.0173759,9.8646793 0 0 1 -5.997005,9.86462 6.0173759,9.8646793 0 0 1 -6.037609,-9.79783 6.0173759,9.8646793 0 0 1 5.956127,-9.93096 6.0173759,9.8646793 0 0 1 6.077935,9.73059" /></g><rect
         style="fill:#000000;fill-opacity:1;stroke:#000000;stroke-width:0.465;stroke-opacity:1"
         id="rect4-3"
         width="0.081816934"
         height="15.545455"
         x="43.486359"
         y="31.622728" /><rect
         style="fill:#000000;fill-opacity:1;stroke:#000000;stroke-width:0.465;stroke-opacity:1"
         id="rect4-5-1"
         width="0.081816934"
         height="15.545455"
         x="43.301731"
         y="114.17615" /><rect
         style="fill:#fbffa8;fill-opacity:1;stroke:none;stroke-width:0.465;stroke-opacity:1"
         id="rect5-9"
         width="2.0454545"
         height="94.336357"
         x="38.699997"
         y="34.036366" /><rect
         style="fill:#fbffa8;fill-opacity:1;stroke:none;stroke-width:0.465;stroke-opacity:1"
         id="rect5-1-8"
         width="2.0454545"
         height="94.336357"
         x="45.869431"
         y="34.259586" /><g
         id="g6-6"
         style="fill:#e9aeea;fill-opacity:1"><rect
           style="fill:#e9aeea;fill-opacity:1;stroke:none;stroke-width:0.465;stroke-opacity:1"
           id="rect6-5"
           width="3.1909091"
           height="3.1909091"
           x="41.890907"
           y="41.399998" /><rect
           style="fill:#e9aeea;fill-opacity:1;stroke:none;stroke-width:0.465;stroke-opacity:1"
           id="rect6-7-0"
           width="3.1909091"
           height="3.1909091"
           x="41.70322"
           y="57.681252" /><rect
           style="fill:#e9aeea;fill-opacity:1;stroke:none;stroke-width:0.465;stroke-opacity:1"
           id="rect6-2-2"
           width="3.1909091"
           height="3.1909091"
           x="41.722347"
           y="73.089767" /><rect
           style="fill:#e9aeea;fill-opacity:1;stroke:none;stroke-width:0.465;stroke-opacity:1"
           id="rect6-1-8"
           width="3.1909091"
           height="3.1909091"
           x="41.79034"
           y="95.057579" /><rect
           style="fill:#e9aeea;fill-opacity:1;stroke:none;stroke-width:0.465;stroke-opacity:1"
           id="rect6-76-6"
           width="3.1909091"
           height="3.1909091"
           x="41.746777"
           y="114.74299" /></g><path
         style="fill:#bababa;fill-opacity:1;stroke:none;stroke-width:0.465;stroke-opacity:1"
         id="path6-0"
         d="m 44.590908,42.988434 a 1.0636363,0.9818182 0 0 1 -1.060036,0.981812 1.0636363,0.9818182 0 0 1 -1.067213,-0.975165 1.0636363,0.9818182 0 0 1 1.05281,-0.988415 1.0636363,0.9818182 0 0 1 1.074341,0.968473" /><path
         style="fill:#bababa;fill-opacity:1;stroke:none;stroke-width:0.465;stroke-opacity:1"
         id="path6-2-2"
         d="m 44.336418,59.156986 a 1.0636363,0.9818182 0 0 1 -1.060036,0.981813 1.0636363,0.9818182 0 0 1 -1.067213,-0.975165 1.0636363,0.9818182 0 0 1 1.05281,-0.988415 1.0636363,0.9818182 0 0 1 1.074341,0.968473" /><path
         style="fill:#bababa;fill-opacity:1;stroke:none;stroke-width:0.465;stroke-opacity:1"
         id="path6-4-4"
         d="m 44.361103,74.651695 a 1.0636363,0.9818182 0 0 1 -1.060036,0.981813 1.0636363,0.9818182 0 0 1 -1.067213,-0.975165 1.0636363,0.9818182 0 0 1 1.05281,-0.988415 1.0636363,0.9818182 0 0 1 1.074341,0.968473" /><path
         style="fill:#bababa;fill-opacity:1;stroke:none;stroke-width:0.465;stroke-opacity:1"
         id="path6-3-8"
         d="m 44.567832,96.645279 a 1.0636363,0.9818182 0 0 1 -1.060035,0.981813 1.0636363,0.9818182 0 0 1 -1.067213,-0.975166 1.0636363,0.9818182 0 0 1 1.05281,-0.988415 1.0636363,0.9818182 0 0 1 1.074341,0.968473" /><path
         style="fill:#bababa;fill-opacity:1;stroke:none;stroke-width:0.465;stroke-opacity:1"
         id="path6-1-6"
         d="m 44.460605,116.36484 a 1.0636363,0.9818182 0 0 1 -1.060035,0.98181 1.0636363,0.9818182 0 0 1 -1.067213,-0.97516 1.0636363,0.9818182 0 0 1 1.05281,-0.98842 1.0636363,0.9818182 0 0 1 1.074341,0.96847" /></g><path
       style="fill:#39f022;fill-opacity:0.665224;stroke-width:0.465"
       id="path1"
       d="m 100.66628,222.39151 c -5.54141,-0.014 -42.190826,-63.86544 -39.40797,-68.65743 2.782856,-4.79199 76.40451,-4.60561 79.16307,0.20041 2.75855,4.80602 -34.21368,68.47105 -39.7551,68.45702 z" /><path
       style="fill:#bababa;fill-opacity:1;stroke:none;stroke-width:0.465;stroke-opacity:1"
       id="path6-3-4"
       d="m 152.62829,115.94917 a 1.0636363,0.9818182 0 0 1 -1.06004,0.98182 1.0636363,0.9818182 0 0 1 -1.06721,-0.97517 1.0636363,0.9818182 0 0 1 1.05281,-0.98841 1.0636363,0.9818182 0 0 1 1.07434,0.96847"
       transform="rotate(25)" /><path
       style="fill:#bababa;fill-opacity:1;stroke:none;stroke-width:0.465;stroke-opacity:1"
       id="path6-3-87"
       d="m 163.87066,110.63379 a 1.0636363,0.9818182 0 0 1 -1.06004,0.98181 1.0636363,0.9818182 0 0 1 -1.06721,-0.97516 1.0636363,0.9818182 0 0 1 1.05281,-0.98842 1.0636363,0.9818182 0 0 1 1.07434,0.96847"
       transform="rotate(25)" /><path
       style="fill:#bababa;fill-opacity:1;stroke:none;stroke-width:0.465;stroke-opacity:1"
       id="path6-3-7"
       d="m 175.86036,105.0429 a 1.0636363,0.9818182 0 0 1 -1.06004,0.98181 1.0636363,0.9818182 0 0 1 -1.06721,-0.97516 1.0636363,0.9818182 0 0 1 1.05281,-0.98842 1.0636363,0.9818182 0 0 1 1.07434,0.96848"
       transform="rotate(25)" /><path
       style="fill:#bababa;fill-opacity:1;stroke:none;stroke-width:0.465;stroke-opacity:1"
       id="path6-3-06"
       d="m 186.88683,100.04714 a 1.0636363,0.9818182 0 0 1 -1.06003,0.98181 1.0636363,0.9818182 0 0 1 -1.06722,-0.97516 1.0636363,0.9818182 0 0 1 1.05281,-0.988416 1.0636363,0.9818182 0 0 1 1.07435,0.968476"
       transform="rotate(25)" /><path
       style="fill:#bababa;fill-opacity:1;stroke:none;stroke-width:0.465;stroke-opacity:1"
       id="path6-3-9"
       d="m 163.56705,123.91247 a 1.0636363,0.9818182 0 0 1 -1.06003,0.98181 1.0636363,0.9818182 0 0 1 -1.06721,-0.97516 1.0636363,0.9818182 0 0 1 1.05281,-0.98842 1.0636363,0.9818182 0 0 1 1.07434,0.96847"
       transform="rotate(25)" /><path
       style="fill:#bababa;fill-opacity:1;stroke:none;stroke-width:0.465;stroke-opacity:1"
       id="path6-3-93"
       d="m 175.56078,118.17372 a 1.0636363,0.9818182 0 0 1 -1.06003,0.98181 1.0636363,0.9818182 0 0 1 -1.06722,-0.97516 1.0636363,0.9818182 0 0 1 1.05281,-0.98842 1.0636363,0.9818182 0 0 1 1.07435,0.96848"
       transform="rotate(25)" /><path
       style="fill:#bababa;fill-opacity:1;stroke:none;stroke-width:0.465;stroke-opacity:1"
       id="path6-3-066"
       d="m 162.36452,136.51555 a 1.0636363,0.9818182 0 0 1 -1.06003,0.98181 1.0636363,0.9818182 0 0 1 -1.06721,-0.97516 1.0636363,0.9818182 0 0 1 1.05281,-0.98842 1.0636363,0.9818182 0 0 1 1.07434,0.96847"
       transform="rotate(25)" /><path
       style="fill:#bababa;fill-opacity:1;stroke:none;stroke-width:0.465;stroke-opacity:1"
       id="path6-3-96"
       d="m 173.6867,131.52785 a 1.0636363,0.9818182 0 0 1 -1.06004,0.98181 1.0636363,0.9818182 0 0 1 -1.06721,-0.97517 1.0636363,0.9818182 0 0 1 1.05281,-0.98841 1.0636363,0.9818182 0 0 1 1.07434,0.96847"
       transform="rotate(25)" /><path
       style="fill:#bababa;fill-opacity:1;stroke:none;stroke-width:0.465;stroke-opacity:1"
       id="path6-3-82"
       d="m 184.41344,126.67187 a 1.0636363,0.9818182 0 0 1 -1.06003,0.98181 1.0636363,0.9818182 0 0 1 -1.06721,-0.97517 1.0636363,0.9818182 0 0 1 1.05281,-0.98841 1.0636363,0.9818182 0 0 1 1.07434,0.96847"
       transform="rotate(25)" /><path
       style="fill:#bababa;fill-opacity:1;stroke:none;stroke-width:0.465;stroke-opacity:1"
       id="path6-3-59"
       d="m 172.59293,141.23386 a 1.0636363,0.9818182 0 0 1 -1.06003,0.98181 1.0636363,0.9818182 0 0 1 -1.06722,-0.97517 1.0636363,0.9818182 0 0 1 1.05281,-0.98841 1.0636363,0.9818182 0 0 1 1.07435,0.96847"
       transform="rotate(25)" /><path
       style="fill:#bababa;fill-opacity:1;stroke:none;stroke-width:0.465;stroke-opacity:1"
       id="path6-3-76"
       d="m 182.7761,136.77731 a 1.0636363,0.9818182 0 0 1 -1.06004,0.98182 1.0636363,0.9818182 0 0 1 -1.06721,-0.97517 1.0636363,0.9818182 0 0 1 1.05281,-0.98841 1.0636363,0.9818182 0 0 1 1.07434,0.96847"
       transform="rotate(25)" /><path
       style="fill:#bababa;fill-opacity:1;stroke:none;stroke-width:0.337358;stroke-opacity:1"
       id="path6-3-76-9"
       d="m 242.70341,127.10446 a 0.76546544,0.71808165 0 0 1 -0.76288,0.71808 0.76546544,0.71808165 0 0 1 -0.76804,-0.71322 0.76546544,0.71808165 0 0 1 0.75768,-0.7229 0.76546544,0.71808165 0 0 1 0.77317,0.70832"
       transform="matrix(0.90216704,0.43138688,-0.41395126,0.91029905,0,0)" /><path
       style="fill:#bababa;fill-opacity:1;stroke:none;stroke-width:0.336997;stroke-opacity:1"
       id="path6-3-76-8"
       d="m 255.11657,131.92686 a 0.78688693,0.6970399 0 0 1 -0.78422,0.69704 0.78688693,0.6970399 0 0 1 -0.78954,-0.69232 0.78688693,0.6970399 0 0 1 0.77888,-0.70172 0.78688693,0.6970399 0 0 1 0.79481,0.68757"
       transform="matrix(0.91621287,0.40069188,-0.44520657,0.89542789,0,0)" /><path
       style="fill:#bababa;fill-opacity:1;stroke:none;stroke-width:0.375184;stroke-opacity:1"
       id="path6-3-76-2"
       d="m 257.44559,114.88814 a 0.83969641,0.80962551 0 0 1 -0.83685,0.80962 0.83969641,0.80962551 0 0 1 -0.84252,-0.80414 0.83969641,0.80962551 0 0 1 0.83115,-0.81507 0.83969641,0.80962551 0 0 1 0.84815,0.79862"
       transform="matrix(0.89476882,0.44652969,-0.39944726,0.91675618,0,0)" /><path
       style="fill:#bababa;fill-opacity:1;stroke:none;stroke-width:0.38248;stroke-opacity:1"
       id="path6-3-76-24"
       d="m 246.3663,135.62389 a 0.86698407,0.81493682 0 0 1 -0.86405,0.81493 0.86698407,0.81493682 0 0 1 -0.8699,-0.80942 0.86698407,0.81493682 0 0 1 0.85816,-0.82041 0.86698407,0.81493682 0 0 1 0.87571,0.80386"
       transform="matrix(0.90164567,0.43247553,-0.41288922,0.91078125,0,0)" /><path
       style="fill:#bababa;fill-opacity:1;stroke:none;stroke-width:0.367439;stroke-opacity:1"
       id="path6-3-76-0"
       d="m 251.68281,146.88878 a 0.83314437,0.78265166 0 0 1 -0.83032,0.78265 0.83314437,0.78265166 0 0 1 -0.83594,-0.77735 0.83314437,0.78265166 0 0 1 0.82466,-0.78791 0.83314437,0.78265166 0 0 1 0.84153,0.77201"
       transform="matrix(0.90180548,0.43214219,-0.41321408,0.91063391,0,0)" /><path
       style="fill:#bababa;fill-opacity:1;stroke:none;stroke-width:0.465;stroke-opacity:1"
       id="path6-3-54"
       d="m 181.71738,149.53227 a 1.0636363,0.9818182 0 0 1 -1.06003,0.98181 1.0636363,0.9818182 0 0 1 -1.06721,-0.97516 1.0636363,0.9818182 0 0 1 1.05281,-0.98842 1.0636363,0.9818182 0 0 1 1.07434,0.96848"
       transform="rotate(25)" /><path
       style="fill:#bababa;fill-opacity:1;stroke:none;stroke-width:0.465;stroke-opacity:1"
       id="path6-3-0"
       d="m 186.23533,114.14488 a 1.0636363,0.9818182 0 0 1 -1.06004,0.98181 1.0636363,0.9818182 0 0 1 -1.06721,-0.97516 1.0636363,0.9818182 0 0 1 1.05281,-0.98842 1.0636363,0.9818182 0 0 1 1.07434,0.96848"
       transform="rotate(25)" /><path
       style="fill:#bababa;fill-opacity:1;stroke:none;stroke-width:0.465;stroke-opacity:1"
       id="path6-3-02"
       d="m 152.74432,129.03217 a 1.0636363,0.9818182 0 0 1 -1.06004,0.98181 1.0636363,0.9818182 0 0 1 -1.06721,-0.97517 1.0636363,0.9818182 0 0 1 1.05281,-0.98841 1.0636363,0.9818182 0 0 1 1.07434,0.96847"
       transform="rotate(25)" /><path
       style="fill:#bababa;fill-opacity:1;stroke:none;stroke-width:0.465;stroke-opacity:1"
       id="path6-3-5"
       d="m 141.84969,120.53741 a 1.0636363,0.9818182 0 0 1 -1.06003,0.98181 1.0636363,0.9818182 0 0 1 -1.06722,-0.97517 1.0636363,0.9818182 0 0 1 1.05281,-0.98841 1.0636363,0.9818182 0 0 1 1.07435,0.96847"
       transform="rotate(25)" /><path
       style="fill:#000000;fill-opacity:1;stroke:#000000;stroke-width:0.865;stroke-dasharray:none;stroke-opacity:1"
       d="m 172.86833,143.82552 8.90954,-19.3233"
       id="path4" /><path
       style="fill:#000000;fill-opacity:1;stroke:#000000;stroke-width:0.665;stroke-dasharray:none;stroke-opacity:1"
       d="m 72.455613,238.72367 v 10.29804"
       id="path5" /><path
       style="fill:#000000;fill-opacity:1;stroke:#000000;stroke-width:0.665;stroke-dasharray:none;stroke-opacity:1"
       d="m 131.2674,238.8526 v 10.29804"
       id="path5-8" /><path
       style="fill:#000000;fill-opacity:1;stroke:#000000;stroke-width:0.667123;stroke-dasharray:none;stroke-opacity:1;marker-start:url(#marker19);marker-end:url(#marker20)"
       d="m 74.472039,243.49274 54.227561,0.0998"
       id="path7" /><path
       style="opacity:0.86;fill:#000000;fill-opacity:1;stroke:#000000;stroke-width:0.518359;stroke-dasharray:1.03672, 2.07344;stroke-dashoffset:0;stroke-opacity:1"
       d="m 100.54213,88.104943 0.26366,152.270327"
       id="path10" /><path
       style="opacity:0.86;fill:#000000;fill-opacity:1;stroke:#000000;stroke-width:0.511;stroke-dasharray:1.022, 2.044;stroke-dashoffset:0;stroke-opacity:1"
       d="m 129.63989,140.89217 0.26474,95.38254"
       id="path10-8" /><path
       style="fill:none;fill-opacity:1;stroke:#000000;stroke-width:0.505;stroke-dasharray:none;stroke-opacity:1;marker-end:url(#Triangle)"
       d="M 100.42404,88.422887 74.957487,125.49266"
       id="path13" /><path
       style="font-size:13.3333px;line-height:0;font-family:Arial;-inkscape-font-specification:Arial;letter-spacing:1.63px;white-space:pre;fill:none;stroke:#000000;stroke-width:2.28661"
       d="m 399.83852,435.83037 1.26302,0.31901 q -0.39713,1.55599 -1.43229,2.3763 -1.02864,0.8138 -2.51952,0.8138 -1.54297,0 -2.51302,-0.625 -0.96354,-0.63151 -1.47135,-1.82291 -0.5013,-1.19141 -0.5013,-2.55859 0,-1.49088 0.56641,-2.59765 0.57291,-1.11328 1.62109,-1.68619 1.05468,-0.57943 2.3177,-0.57943 1.43229,0 2.40885,0.72916 0.97656,0.72917 1.36067,2.05078 l -1.24349,0.29297 q -0.33203,-1.04167 -0.96354,-1.51692 -0.63151,-0.47526 -1.58853,-0.47526 -1.10026,0 -1.84245,0.52734 -0.73567,0.52734 -1.03515,1.41927 -0.29948,0.88541 -0.29948,1.82942 0,1.21744 0.35156,2.1289 0.35807,0.90494 1.10677,1.35416 0.7487,0.44922 1.62109,0.44922 1.0612,0 1.79687,-0.61198 0.73568,-0.61198 0.99609,-1.8164 z m 4.47505,3.34635 v -9.54425 h 6.90102 v 1.1263 h -5.63801 v 2.92317 h 5.27994 v 1.11979 h -5.27994 v 3.24869 h 5.85936 v 1.1263 z m 10.48414,0 v -9.54425 h 1.29557 l 5.01301,7.49347 v -7.49347 h 1.21093 v 9.54425 h -1.29557 l -5.01301,-7.49998 v 7.49998 z m 13.70028,0 v -8.41795 h -3.14452 v -1.1263 h 7.56508 v 1.1263 h -3.15754 v 8.41795 z m 7.37217,0 v -9.54425 h 6.90103 v 1.1263 h -5.63801 v 2.92317 h 5.27994 v 1.11979 h -5.27994 v 3.24869 h 5.85936 v 1.1263 z m 10.5167,0 v -9.54425 h 4.23176 q 1.27604,0 1.9401,0.26042 0.66406,0.2539 1.0612,0.90494 0.39713,0.65104 0.39713,1.4388 0,1.01562 -0.65755,1.71223 -0.65755,0.69662 -2.03124,0.88542 0.5013,0.24088 0.76171,0.47526 0.55339,0.50781 1.04818,1.26953 l 1.66015,2.59765 h -1.58854 l -1.26302,-1.98568 q -0.55338,-0.85937 -0.91145,-1.3151 -0.35807,-0.45572 -0.64453,-0.63802 -0.27995,-0.18229 -0.57292,-0.2539 -0.21484,-0.0456 -0.70312,-0.0456 h -1.46484 v 4.23827 z m 1.26302,-5.33202 h 2.71484 q 0.86588,0 1.35416,-0.17578 0.48828,-0.18229 0.74219,-0.57292 0.2539,-0.39713 0.2539,-0.85937 0,-0.67708 -0.49479,-1.11328 -0.48828,-0.4362 -1.54947,-0.4362 h -3.02083 z m 9.92424,5.33202 v -9.54425 h 1.26302 v 8.41795 h 4.70051 v 1.1263 z m 9.31228,0 v -9.54425 h 1.26302 v 9.54425 z m 5.10656,0 v -9.54425 h 1.29557 l 5.013,7.49347 v -7.49347 h 1.21094 v 9.54425 h -1.29557 l -5.01301,-7.49998 v 7.49998 z m 11.29794,0 v -9.54425 h 6.90102 v 1.1263 h -5.638 v 2.92317 h 5.27993 v 1.11979 h -5.27993 v 3.24869 h 5.85936 v 1.1263 z"
       id="text15"
       transform="matrix(0.26458333,0,0,0.26458333,1.4552084,-26.458333)"
       aria-label="CENTERLINE" /><g
       id="text16"
       style="font-size:13.3333px;font-family:Arial;-inkscape-font-specification:'Arial, Normal';letter-spacing:1.6px;white-space:pre;shape-padding:5.5;fill:none;stroke:#000000;stroke-width:2.28661"
       transform="matrix(0.26458333,0,0,0.26458333,-0.3968756,-1.9843749)"
       aria-label="AREA OF WAVE AMPLIFICATION "><path
         d="m 251.48047,601.01003 3.66535,-9.54425 h 1.36068 l 3.90624,9.54425 h -1.4388 l -1.11328,-2.89062 h -3.99087 l -1.04818,2.89062 z m 2.7539,-3.91926 h 3.23567 l -0.99609,-2.64322 q -0.45573,-1.20443 -0.67709,-1.97917 -0.18229,0.91797 -0.51432,1.82292 z m 8.80701,3.91926 v -9.54425 h 4.23176 q 1.27604,0 1.9401,0.26042 0.66406,0.2539 1.0612,0.90494 0.39713,0.65104 0.39713,1.4388 0,1.01562 -0.65755,1.71224 -0.65755,0.69661 -2.03124,0.88541 0.5013,0.24089 0.76171,0.47526 0.55339,0.50781 1.04818,1.26953 l 1.66015,2.59765 h -1.58854 l -1.26302,-1.98567 q -0.55338,-0.85938 -0.91145,-1.3151 -0.35807,-0.45573 -0.64453,-0.63802 -0.27995,-0.18229 -0.57292,-0.25391 -0.21484,-0.0456 -0.70312,-0.0456 H 264.3044 V 601.01 Z m 1.26302,-5.33202 h 2.71484 q 0.86588,0 1.35416,-0.17578 0.48828,-0.18229 0.74218,-0.57292 0.25391,-0.39713 0.25391,-0.85937 0,-0.67708 -0.49479,-1.11328 -0.48828,-0.43619 -1.54948,-0.43619 h -3.02082 z m 9.97237,5.33202 v -9.54425 h 6.90103 v 1.1263 h -5.63801 v 2.92317 h 5.27993 v 1.11979 h -5.27993 v 3.24869 h 5.85936 v 1.1263 z m 9.41899,0 3.66536,-9.54425 h 1.36067 l 3.90624,9.54425 h -1.4388 l -1.11328,-2.89062 h -3.99087 l -1.04817,2.89062 z m 2.7539,-3.91926 h 3.23567 l -0.99609,-2.64322 q -0.45573,-1.20443 -0.67708,-1.97917 -0.18229,0.91797 -0.51432,1.82292 z m 12.97211,-0.72917 q 0,-2.37629 1.27604,-3.71744 1.27604,-1.34765 3.29427,-1.34765 1.32161,0 2.3828,0.63151 1.0612,0.63151 1.61458,1.76432 0.5599,1.1263 0.5599,2.55859 0,1.45182 -0.58594,2.59765 -0.58594,1.14583 -1.66015,1.73827 -1.07422,0.58594 -2.31771,0.58594 -1.34765,0 -2.40884,-0.65104 -1.0612,-0.65104 -1.60807,-1.77734 -0.54688,-1.1263 -0.54688,-2.38281 z m 1.30208,0.0195 q 0,1.72526 0.92448,2.72135 0.93099,0.98958 2.33072,0.98958 1.42578,0 2.34375,-1.0026 0.92448,-1.0026 0.92448,-2.84504 0,-1.16537 -0.39714,-2.03125 -0.39062,-0.87239 -1.15234,-1.34765 -0.75521,-0.48177 -1.69921,-0.48177 -1.34115,0 -2.3112,0.92448 -0.96354,0.91796 -0.96354,3.0729 z m 11.11821,4.6289 v -9.54425 h 6.43879 v 1.1263 h -5.17577 v 2.95572 h 4.47915 v 1.1263 h -4.47915 V 601.01 Z m 16.65049,0 -2.53255,-9.54425 h 1.29557 l 1.45182,6.2565 q 0.23437,0.98307 0.40364,1.95312 0.36459,-1.52995 0.42969,-1.76432 l 1.8164,-6.4453 h 1.52344 l 1.36718,4.83072 q 0.51432,1.79687 0.74219,3.3789 0.18229,-0.90495 0.47526,-2.07682 l 1.49739,-6.1328 h 1.26953 l -2.61719,9.54425 h -1.21744 l -2.01171,-7.27212 q -0.25391,-0.91145 -0.29948,-1.11979 -0.14974,0.65755 -0.27995,1.11979 l -2.02473,7.27212 z m 10.97497,0 3.66536,-9.54425 h 1.36067 l 3.90624,9.54425 h -1.4388 l -1.11328,-2.89062 h -3.99087 l -1.04818,2.89062 z m 2.7539,-3.91926 h 3.23567 l -0.99609,-2.64322 q -0.45573,-1.20443 -0.67708,-1.97917 -0.18229,0.91797 -0.51432,1.82292 z m 10.52576,3.91926 -3.69791,-9.54425 h 1.36718 l 2.48047,6.93358 q 0.29948,0.83333 0.5013,1.56249 0.22135,-0.78124 0.51432,-1.56249 l 2.57812,-6.93358 h 1.28906 l -3.73697,9.54425 z m 7.79139,0 v -9.54425 h 6.90103 v 1.1263 h -5.63801 v 2.92317 h 5.27993 v 1.11979 h -5.27993 v 3.24869 h 5.85936 v 1.1263 z"
         id="path33" /><path
         d="m 251.48047,617.67665 3.66535,-9.54424 h 1.36068 l 3.90624,9.54424 h -1.4388 l -1.11328,-2.89061 h -3.99087 l -1.04818,2.89061 z m 2.7539,-3.91926 h 3.23567 l -0.99609,-2.64322 q -0.45573,-1.20442 -0.67709,-1.97916 -0.18229,0.91797 -0.51432,1.82291 z m 8.74842,3.91926 v -9.54424 h 1.90103 l 2.25911,6.75779 q 0.3125,0.94401 0.45573,1.41276 0.16276,-0.52083 0.50781,-1.52994 l 2.28515,-6.64061 h 1.69922 v 9.54424 h -1.21745 v -7.98826 l -2.77343,7.98826 h -1.13932 l -2.76041,-8.12497 v 8.12497 z m 12.7458,0 v -9.54424 h 3.60025 q 0.95052,0 1.45182,0.0911 0.70313,0.11719 1.17839,0.44922 0.47525,0.32552 0.76171,0.91797 0.29297,0.59244 0.29297,1.30208 0,1.21744 -0.77474,2.06379 -0.77473,0.83985 -2.79947,0.83985 h -2.44791 v 3.88019 z m 1.26302,-5.00649 h 2.46744 q 1.22396,0 1.73828,-0.45573 0.51432,-0.45573 0.51432,-1.28255 0,-0.59896 -0.30599,-1.02213 -0.29948,-0.42969 -0.79427,-0.56641 -0.31901,-0.0846 -1.17838,-0.0846 h -2.4414 z m 9.17811,5.00649 v -9.54424 h 1.26301 v 8.41795 h 4.70051 v 1.12629 z m 9.28227,0 v -9.54424 h 1.26302 v 9.54424 z m 5.15468,0 v -9.54424 h 6.43878 v 1.1263 h -5.17576 v 2.95572 h 4.47915 v 1.1263 h -4.47915 v 4.33592 z m 9.89425,0 v -9.54424 h 1.26302 v 9.54424 z m 11.89945,-3.34634 1.26302,0.31901 q -0.39714,1.55598 -1.43229,2.37629 -1.02864,0.8138 -2.51953,0.8138 -1.54296,0 -2.51301,-0.62499 -0.96354,-0.63151 -1.47135,-1.82292 -0.5013,-1.1914 -0.5013,-2.55858 0,-1.49088 0.5664,-2.59765 0.57292,-1.11328 1.62109,-1.6862 1.05469,-0.57942 2.31771,-0.57942 1.43228,0 2.40884,0.72916 0.97656,0.72917 1.36068,2.05078 l -1.24349,0.29297 q -0.33203,-1.04167 -0.96354,-1.51693 -0.63151,-0.47526 -1.58854,-0.47526 -1.10025,0 -1.84244,0.52735 -0.73567,0.52734 -1.03515,1.41926 -0.29948,0.88542 -0.29948,1.82943 0,1.21744 0.35156,2.1289 0.35807,0.90494 1.10677,1.35416 0.74869,0.44922 1.62109,0.44922 1.06119,0 1.79687,-0.61198 0.73567,-0.61198 0.99609,-1.8164 z m 3.37082,3.34634 3.66536,-9.54424 h 1.36067 l 3.90624,9.54424 h -1.43879 l -1.11328,-2.89061 h -3.99088 l -1.04817,2.89061 z m 2.7539,-3.91926 h 3.23567 l -0.99609,-2.64322 q -0.45573,-1.20442 -0.67708,-1.97916 -0.18229,0.91797 -0.51432,1.82291 z m 10.22629,3.91926 v -8.41794 h -3.14452 v -1.1263 h 7.56508 v 1.1263 h -3.15754 v 8.41794 z m 7.53097,0 v -9.54424 h 1.26302 v 9.54424 z m 4.70546,-4.64842 q 0,-2.3763 1.27604,-3.71744 1.27604,-1.34765 3.29427,-1.34765 1.32161,0 2.3828,0.63151 1.0612,0.63151 1.61458,1.76431 0.5599,1.1263 0.5599,2.55859 0,1.45182 -0.58594,2.59765 -0.58594,1.14583 -1.66015,1.73828 -1.07422,0.58593 -2.31771,0.58593 -1.34765,0 -2.40884,-0.65104 -1.0612,-0.65104 -1.60807,-1.77733 -0.54688,-1.1263 -0.54688,-2.38281 z m 1.30208,0.0195 q 0,1.72526 0.92448,2.72135 0.93099,0.98958 2.33072,0.98958 1.42578,0 2.34375,-1.0026 0.92448,-1.00261 0.92448,-2.84505 0,-1.16536 -0.39714,-2.03124 -0.39062,-0.8724 -1.15234,-1.34766 -0.75521,-0.48177 -1.69921,-0.48177 -1.34115,0 -2.3112,0.92448 -0.96354,0.91797 -0.96354,3.07291 z m 11.04009,4.62889 v -9.54424 h 1.29557 l 5.013,7.49347 v -7.49347 h 1.21094 v 9.54424 h -1.29557 l -5.01301,-7.49998 v 7.49998 z"
         id="path34" /></g><g
       id="text15-2"
       style="font-size:13.3333px;font-family:Arial;-inkscape-font-specification:'Arial, Normal';letter-spacing:1.6px;white-space:pre;fill:none;stroke:#000000;stroke-width:2.28661"
       transform="matrix(0.26458333,0,0,0.26458333,-67.077372,8.6889906)"
       aria-label="INCIDENT WAVE&#10;Hi&#10;"><path
         style="text-align:center;text-anchor:middle"
         d="m 405.54075,447.51003 v -9.54425 h 1.26302 v 9.54425 z m 5.07656,0 v -9.54425 h 1.29557 l 5.013,7.49347 v -7.49347 h 1.21094 v 9.54425 h -1.29557 l -5.01301,-7.49998 v 7.49998 z m 18.05178,-3.34635 1.26301,0.31901 q -0.39713,1.55599 -1.43228,2.3763 -1.02865,0.8138 -2.51953,0.8138 -1.54296,0 -2.51301,-0.625 -0.96354,-0.63151 -1.47135,-1.82291 -0.5013,-1.19141 -0.5013,-2.55859 0,-1.49088 0.5664,-2.59765 0.57292,-1.11328 1.62109,-1.68619 1.05469,-0.57943 2.3177,-0.57943 1.43229,0 2.40885,0.72917 0.97656,0.72916 1.36067,2.05077 l -1.24348,0.29297 q -0.33203,-1.04166 -0.96354,-1.51692 -0.63151,-0.47526 -1.58854,-0.47526 -1.10026,0 -1.84244,0.52734 -0.73568,0.52734 -1.03516,1.41927 -0.29947,0.88541 -0.29947,1.82942 0,1.21745 0.35156,2.1289 0.35807,0.90495 1.10677,1.35416 0.74869,0.44922 1.62109,0.44922 1.06119,0 1.79687,-0.61198 0.73567,-0.61197 0.99609,-1.8164 z m 4.63384,3.34635 v -9.54425 h 1.26302 v 9.54425 z m 5.08958,0 v -9.54425 h 3.28775 q 1.11328,0 1.69921,0.13672 0.82031,0.1888 1.39974,0.68359 0.75521,0.63802 1.1263,1.63411 0.3776,0.98958 0.3776,2.26562 0,1.08724 -0.2539,1.92708 -0.25391,0.83984 -0.65104,1.39323 -0.39714,0.54687 -0.8724,0.86588 -0.46875,0.3125 -1.13932,0.47526 -0.66406,0.16276 -1.52994,0.16276 z m 1.26301,-1.1263 h 2.03776 q 0.94401,0 1.47786,-0.17578 0.54036,-0.17578 0.85937,-0.49479 0.44922,-0.44922 0.69662,-1.20443 0.2539,-0.76171 0.2539,-1.84244 0,-1.49739 -0.49479,-2.29817 -0.48828,-0.80729 -1.1914,-1.08073 -0.50781,-0.19531 -1.63411,-0.19531 h -2.00521 z m 9.99191,1.1263 v -9.54425 h 6.90102 v 1.1263 h -5.638 v 2.92317 h 5.27993 v 1.11979 h -5.27993 v 3.24869 h 5.85936 v 1.1263 z m 10.45414,0 v -9.54425 h 1.29557 l 5.01301,7.49347 v -7.49347 h 1.21094 v 9.54425 h -1.29557 l -5.01301,-7.49998 v 7.49998 z m 13.67029,0 v -8.41795 h -3.14452 v -1.1263 h 7.56508 v 1.1263 h -3.15754 v 8.41795 z m 14.04633,0 -2.53255,-9.54425 h 1.29557 l 1.45182,6.2565 q 0.23438,0.98307 0.40365,1.95312 0.36458,-1.52995 0.42968,-1.76432 l 1.8164,-6.4453 h 1.52344 l 1.36718,4.83072 q 0.51432,1.79687 0.74219,3.3789 0.18229,-0.90495 0.47526,-2.07682 l 1.49739,-6.1328 h 1.26953 l -2.61718,9.54425 h -1.21745 l -2.01171,-7.27212 q -0.25391,-0.91145 -0.29948,-1.11979 -0.14974,0.65755 -0.27995,1.11979 l -2.02473,7.27212 z m 10.97497,0 3.66536,-9.54425 h 1.36067 l 3.90624,9.54425 h -1.4388 l -1.11328,-2.89062 h -3.99087 l -1.04818,2.89062 z m 2.7539,-3.91926 h 3.23567 l -0.99609,-2.64322 q -0.45573,-1.20443 -0.67708,-1.97917 -0.18229,0.91797 -0.51432,1.82292 z m 10.52576,3.91926 -3.69791,-9.54425 h 1.36719 l 2.48046,6.93358 q 0.29948,0.83333 0.5013,1.56249 0.22135,-0.78124 0.51432,-1.56249 l 2.57812,-6.93358 h 1.28906 l -3.73697,9.54425 z m 7.79139,0 v -9.54425 h 6.90103 v 1.1263 h -5.63801 v 2.92317 h 5.27993 v 1.11979 h -5.27993 v 3.24869 h 5.85936 v 1.1263 z"
         id="path28" /><path
         style="text-align:center;text-anchor:middle"
         d="m 460.49054,464.17665 v -9.54424 h 1.26302 v 3.91926 h 4.96092 v -3.91926 h 1.26302 v 9.54424 h -1.26302 v -4.49868 h -4.96092 v 4.49868 z"
         id="path29" /><path
         style="font-size:65%;text-align:center;baseline-shift:sub;text-anchor:middle"
         d="m 471.22723,461.51553 v -0.87598 h 0.76172 v 0.87598 z m 0,5.32778 v -4.49412 h 0.76172 v 4.49412 z"
         id="path30" /></g><path
       style="opacity:0.86;fill:none;stroke:#000000;stroke-width:0.595831;stroke-opacity:1;marker-start:url(#marker12)"
       id="path8"
       d="m 132.86396,174.77046 a 21.66888,19.517715 0 0 1 20.10781,12.30926" /><path
       d="m 144.45571,168.89769 q 1.11426,0 1.87907,0.78844 0.76482,0.78447 0.76482,2.0468 0,1.36188 -0.82417,2.14637 -0.82414,0.78446 -1.90545,0.78446 -1.06152,0 -1.87247,-0.76057 -0.8044,-0.76457 -0.8044,-2.07067 0,-1.31011 0.79781,-2.12246 0.80438,-0.81235 1.9648,-0.81235 z m 1.41758,2.74771 q 0,-2.51667 -1.46373,-2.51667 -1.50327,0 -1.50327,2.51667 z m -2.967,0.2469 q 0,1.30213 0.4022,1.92335 0.40219,0.61722 1.08131,0.61722 1.47028,0 1.48349,-2.54052 z"
       id="path1-5"
       style="stroke-width:0.0276544" /><g
       id="text16-4"
       style="font-size:13.3333px;font-family:Arial;-inkscape-font-specification:'Arial, Normal';letter-spacing:1.6px;white-space:pre;shape-padding:5.5;fill:none;stroke:#000000;stroke-width:2.28661"
       transform="matrix(0.26458333,0,0,0.26458333,72.274334,34.090712)"
       aria-label="ANGLE OF FLOATING WAVE AMPLIFIER (FWA)  "><path
         style="text-align:center;text-anchor:middle"
         d="m 283.91962,601.01003 3.66535,-9.54425 h 1.36068 l 3.90624,9.54425 h -1.4388 l -1.11328,-2.89062 h -3.99088 l -1.04817,2.89062 z m 2.7539,-3.91926 h 3.23566 l -0.99609,-2.64322 q -0.45572,-1.20443 -0.67708,-1.97917 -0.18229,0.91797 -0.51432,1.82292 z m 8.77446,3.91926 v -9.54425 h 1.29557 l 5.013,7.49347 v -7.49347 h 1.21094 v 9.54425 h -1.29557 l -5.01301,-7.49998 v 7.49998 z m 15.70803,-3.74348 v -1.11979 l 4.04296,-0.007 v 3.54166 q -0.93099,0.74218 -1.92057,1.11979 -0.98958,0.37109 -2.03124,0.37109 -1.40625,0 -2.55859,-0.59896 -1.14583,-0.60547 -1.73176,-1.74479 -0.58594,-1.13932 -0.58594,-2.54556 0,-1.39323 0.57942,-2.59765 0.58594,-1.21094 1.67969,-1.79687 1.09375,-0.58594 2.51952,-0.58594 1.03516,0 1.86849,0.33854 0.83984,0.33203 1.3151,0.93099 0.47526,0.59896 0.72265,1.5625 l -1.13932,0.3125 q -0.21484,-0.72917 -0.53385,-1.14584 -0.31901,-0.41666 -0.91146,-0.66406 -0.59244,-0.2539 -1.3151,-0.2539 -0.86588,0 -1.49739,0.26692 -0.63151,0.26042 -1.02213,0.69011 -0.38412,0.42968 -0.59896,0.94401 -0.36458,0.88541 -0.36458,1.92056 0,1.27604 0.4362,2.13541 0.4427,0.85938 1.28254,1.27604 0.83985,0.41667 1.78385,0.41667 0.82031,0 1.60156,-0.3125 0.78125,-0.31901 1.1849,-0.67708 v -1.77734 z m 7.45285,3.74348 v -9.54425 h 1.26302 v 8.41795 h 4.70051 v 1.1263 z m 9.09348,0 v -9.54425 h 6.90102 v 1.1263 h -5.63801 v 2.92317 h 5.27994 v 1.11979 h -5.27994 v 3.24869 h 5.85936 v 1.1263 z m 15.38746,-4.64843 q 0,-2.37629 1.27604,-3.71744 1.27604,-1.34765 3.29426,-1.34765 1.32162,0 2.38281,0.63151 1.0612,0.63151 1.61458,1.76432 0.55989,1.1263 0.55989,2.55859 0,1.45182 -0.58593,2.59765 -0.58594,1.14583 -1.66015,1.73827 -1.07422,0.58594 -2.31771,0.58594 -1.34765,0 -2.40884,-0.65104 -1.0612,-0.65104 -1.60807,-1.77734 -0.54688,-1.1263 -0.54688,-2.38281 z m 1.30208,0.0195 q 0,1.72526 0.92448,2.72135 0.93099,0.98958 2.33072,0.98958 1.42578,0 2.34375,-1.0026 0.92447,-1.0026 0.92447,-2.84504 0,-1.16537 -0.39713,-2.03125 -0.39062,-0.87239 -1.15234,-1.34765 -0.75521,-0.48177 -1.69922,-0.48177 -1.34114,0 -2.31119,0.92448 -0.96354,0.91796 -0.96354,3.0729 z m 11.11821,4.6289 v -9.54425 h 6.43879 v 1.1263 h -5.17577 v 2.95572 h 4.47915 v 1.1263 h -4.47915 V 601.01 Z"
         id="path2" /><path
         style="text-align:center;text-anchor:middle"
         d="m 261.1599,617.67665 v -9.54424 h 6.43878 v 1.1263 h -5.17576 v 2.95572 h 4.47915 v 1.1263 h -4.47915 v 4.33592 z m 9.62732,0 v -9.54424 h 1.26302 v 8.41795 h 4.70051 v 1.12629 z m 8.68332,-4.64842 q 0,-2.3763 1.27603,-3.71744 1.27604,-1.34765 3.29427,-1.34765 1.32161,0 2.3828,0.63151 1.0612,0.63151 1.61458,1.76431 0.5599,1.1263 0.5599,2.55859 0,1.45182 -0.58594,2.59765 -0.58594,1.14583 -1.66015,1.73828 -1.07422,0.58593 -2.3177,0.58593 -1.34766,0 -2.40885,-0.65104 -1.0612,-0.65104 -1.60807,-1.77733 -0.54687,-1.1263 -0.54687,-2.38281 z m 1.30208,0.0195 q 0,1.72526 0.92447,2.72135 0.93099,0.98958 2.33073,0.98958 1.42577,0 2.34374,-1.0026 0.92448,-1.00261 0.92448,-2.84505 0,-1.16536 -0.39714,-2.03124 -0.39062,-0.8724 -1.15234,-1.34766 -0.7552,-0.48177 -1.69921,-0.48177 -1.34115,0 -2.31119,0.92448 -0.96354,0.91797 -0.96354,3.07291 z m 10.00492,4.62889 3.66536,-9.54424 h 1.36067 l 3.90624,9.54424 h -1.4388 l -1.11327,-2.89061 h -3.99088 l -1.04817,2.89061 z m 2.7539,-3.91926 h 3.23567 l -0.99609,-2.64322 q -0.45573,-1.20442 -0.67708,-1.97916 -0.18229,0.91797 -0.51432,1.82291 z m 10.22628,3.91926 v -8.41794 h -3.14452 v -1.1263 h 7.56509 v 1.1263 h -3.15755 v 8.41794 z m 7.53098,0 v -9.54424 h 1.26302 v 9.54424 z m 5.07655,0 v -9.54424 h 1.29557 l 5.01301,7.49347 v -7.49347 h 1.21093 v 9.54424 h -1.29557 l -5.013,-7.49998 v 7.49998 z m 15.70804,-3.74348 v -1.11978 l 4.04296,-0.007 v 3.54165 q -0.93099,0.74219 -1.92057,1.11979 -0.98958,0.37109 -2.03125,0.37109 -1.40624,0 -2.55858,-0.59895 -1.14583,-0.60547 -1.73177,-1.74479 -0.58594,-1.13932 -0.58594,-2.54557 0,-1.39322 0.57943,-2.59765 0.58594,-1.21093 1.67968,-1.79687 1.09375,-0.58593 2.51953,-0.58593 1.03515,0 1.86848,0.33854 0.83984,0.33203 1.3151,0.93099 0.47526,0.59895 0.72266,1.56249 l -1.13932,0.3125 q -0.21485,-0.72916 -0.53385,-1.14583 -0.31901,-0.41666 -0.91146,-0.66406 -0.59245,-0.25391 -1.3151,-0.25391 -0.86588,0 -1.49739,0.26693 -0.63151,0.26042 -1.02214,0.6901 -0.38411,0.42969 -0.59895,0.94401 -0.36459,0.88542 -0.36459,1.92057 0,1.27604 0.4362,2.13541 0.44271,0.85937 1.28255,1.27604 0.83984,0.41666 1.78385,0.41666 0.82031,0 1.60156,-0.31249 0.78125,-0.31901 1.18489,-0.67709 v -1.77734 z m 14.47601,3.74348 -2.53255,-9.54424 h 1.29557 l 1.45182,6.25649 q 0.23438,0.98307 0.40365,1.95312 0.36458,-1.52994 0.42968,-1.76432 l 1.8164,-6.44529 h 1.52344 l 1.36718,4.83071 q 0.51432,1.79688 0.74219,3.3789 0.18229,-0.90494 0.47526,-2.07682 l 1.49739,-6.13279 h 1.26953 l -2.61718,9.54424 h -1.21745 l -2.01171,-7.27211 q -0.25391,-0.91146 -0.29948,-1.11979 -0.14974,0.65755 -0.27995,1.11979 l -2.02473,7.27211 z m 10.97498,0 3.66536,-9.54424 h 1.36067 l 3.90624,9.54424 h -1.4388 l -1.11328,-2.89061 h -3.99087 l -1.04818,2.89061 z m 2.7539,-3.91926 h 3.23567 l -0.99609,-2.64322 q -0.45573,-1.20442 -0.67708,-1.97916 -0.1823,0.91797 -0.51433,1.82291 z m 10.52576,3.91926 -3.69791,-9.54424 h 1.36718 l 2.48047,6.93357 q 0.29947,0.83334 0.5013,1.5625 0.22135,-0.78125 0.51432,-1.5625 l 2.57812,-6.93357 h 1.28906 l -3.73697,9.54424 z m 7.79138,0 v -9.54424 h 6.90103 v 1.1263 h -5.63801 v 2.92317 h 5.27994 v 1.11979 h -5.27994 v 3.24869 h 5.85936 v 1.12629 z"
         id="path9" /><path
         style="text-align:center;text-anchor:middle"
         d="m 253.33022,634.34328 3.66536,-9.54425 h 1.36067 l 3.90624,9.54425 h -1.4388 l -1.11327,-2.89062 h -3.99088 l -1.04817,2.89062 z m 2.7539,-3.91926 h 3.23567 l -0.99609,-2.64322 q -0.45573,-1.20443 -0.67708,-1.97916 -0.18229,0.91796 -0.51432,1.82291 z m 8.74842,3.91926 v -9.54425 h 1.90104 l 2.25911,6.7578 q 0.3125,0.94401 0.45573,1.41276 0.16276,-0.52084 0.50781,-1.52995 l 2.28515,-6.64061 h 1.69921 v 9.54425 h -1.21744 v -7.98826 l -2.77343,7.98826 h -1.13932 l -2.76041,-8.12498 v 8.12498 z m 12.74581,0 v -9.54425 h 3.60025 q 0.95052,0 1.45182,0.0911 0.70312,0.11719 1.17838,0.44922 0.47526,0.32552 0.76172,0.91796 0.29297,0.59245 0.29297,1.30208 0,1.21745 -0.77474,2.0638 -0.77474,0.83984 -2.79947,0.83984 h -2.44791 v 3.8802 z m 1.26302,-5.0065 h 2.46744 q 1.22395,0 1.73827,-0.45573 0.51433,-0.45572 0.51433,-1.28254 0,-0.59896 -0.30599,-1.02214 -0.29948,-0.42968 -0.79427,-0.5664 -0.31901,-0.0846 -1.17838,-0.0846 h -2.4414 z m 9.1781,5.0065 v -9.54425 h 1.26302 v 8.41795 h 4.70051 v 1.1263 z m 9.28228,0 v -9.54425 h 1.26301 v 9.54425 z m 5.15467,0 v -9.54425 h 6.43879 v 1.1263 h -5.17577 v 2.95572 h 4.47916 v 1.1263 h -4.47916 v 4.33593 z m 9.89425,0 v -9.54425 h 1.26302 v 9.54425 z m 5.11562,0 v -9.54425 h 6.90102 v 1.1263 h -5.638 v 2.92317 h 5.27993 v 1.11979 h -5.27993 v 3.24869 h 5.85936 v 1.1263 z m 10.48669,0 v -9.54425 h 4.23176 q 1.27604,0 1.9401,0.26042 0.66406,0.25391 1.0612,0.90495 0.39713,0.65104 0.39713,1.43879 0,1.01563 -0.65755,1.71224 -0.65755,0.69661 -2.03124,0.88541 0.5013,0.24089 0.76171,0.47526 0.55339,0.50781 1.04818,1.26953 l 1.66015,2.59765 h -1.58854 l -1.26301,-1.98567 q -0.55339,-0.85937 -0.91146,-1.3151 -0.35807,-0.45573 -0.64453,-0.63802 -0.27995,-0.18229 -0.57292,-0.25391 -0.21484,-0.0456 -0.70312,-0.0456 H 329.216 v 4.23827 z m 1.26302,-5.33202 h 2.71484 q 0.86588,0 1.35416,-0.17578 0.48828,-0.18229 0.74219,-0.57291 0.2539,-0.39714 0.2539,-0.85938 0,-0.67708 -0.49479,-1.11327 -0.48828,-0.4362 -1.54947,-0.4362 H 329.216 Z m 17.34059,8.138 q -0.97005,-1.22395 -1.64062,-2.86457 -0.67057,-1.64062 -0.67057,-3.39843 0,-1.54948 0.5013,-2.96874 0.58594,-1.64714 1.80989,-3.28125 h 0.83984 q -0.78775,1.35417 -1.04166,1.93359 -0.39713,0.89844 -0.625,1.875 -0.27994,1.21744 -0.27994,2.44791 0,3.1315 1.9466,6.25649 z m 4.01536,-2.80598 v -9.54425 h 6.43879 v 1.1263 h -5.17577 v 2.95572 h 4.47915 v 1.1263 h -4.47915 v 4.33593 z m 11.34607,0 -2.53255,-9.54425 h 1.29557 l 1.45182,6.2565 q 0.23437,0.98307 0.40364,1.95312 0.36459,-1.52995 0.42969,-1.76432 l 1.8164,-6.4453 h 1.52344 l 1.36718,4.83072 q 0.51432,1.79687 0.74219,3.3789 0.18229,-0.90495 0.47526,-2.07682 l 1.49739,-6.1328 h 1.26953 l -2.61719,9.54425 h -1.21744 l -2.01171,-7.27212 q -0.25391,-0.91145 -0.29948,-1.11979 -0.14974,0.65756 -0.27995,1.11979 l -2.02473,7.27212 z m 10.97497,0 3.66536,-9.54425 h 1.36067 l 3.90624,9.54425 h -1.4388 l -1.11328,-2.89062 h -3.99087 l -1.04818,2.89062 z m 2.7539,-3.91926 h 3.23567 l -0.99609,-2.64322 q -0.45573,-1.20443 -0.67708,-1.97916 -0.18229,0.91796 -0.51432,1.82291 z m 9.40597,6.72524 h -0.83985 q 1.94661,-3.12499 1.94661,-6.25649 0,-1.22396 -0.27994,-2.42838 -0.22136,-0.97656 -0.61849,-1.875 -0.25391,-0.58593 -1.04818,-1.95312 h 0.83985 q 1.22395,1.63411 1.80989,3.28125 0.5013,1.41926 0.5013,2.96874 0,1.75781 -0.67708,3.39843 -0.67057,1.64062 -1.63411,2.86457 z"
         id="path11" /></g><path
       style="opacity:0.86;fill:none;stroke:#000000;stroke-width:0.455446;stroke-opacity:1;marker-start:url(#marker12-2)"
       id="path8-8"
       d="m -99.191846,-121.48748 a 16.013063,15.43188 0 0 1 14.859452,9.73244"
       transform="scale(-1)" /><path
       d="m 90.310189,122.53166 h 1.115032 l -0.675574,2.57508 q -0.196843,0.73416 -0.268927,0.90099 0.262375,1.02338 0.760856,1.02338 0.590334,0 0.610016,-0.68964 h 0.236115 q -0.0187,0.64515 -0.282032,1.04561 -0.255806,0.39488 -0.675574,0.39488 -0.347641,0 -0.518155,-0.23916 -0.170437,-0.23915 -0.367315,-0.97886 -0.68216,1.21804 -2.230098,1.21804 -1.056019,0 -1.679131,-0.69523 -0.623112,-0.70078 -0.623112,-2.0022 0,-1.27921 0.68216,-1.9911 0.682126,-0.71188 1.639765,-0.71188 0.675582,0 1.108489,0.40601 0.432906,0.40601 0.767434,1.3237 z m -0.577195,2.1802 q -0.308275,-0.89543 -0.688712,-1.396 -0.380411,-0.50612 -0.911731,-0.50612 -1.200315,0 -1.200315,2.38042 0,2.25807 1.147854,2.25807 0.996971,0 1.475795,-1.9911 z"
       id="path1-1"
       style="stroke-width:0.0325976" /><g
       id="text15-2-9"
       style="font-size:13.3333px;font-family:Arial;-inkscape-font-specification:'Arial, Normal';letter-spacing:1.6px;white-space:pre;fill:none;stroke:#000000;stroke-width:2.28661"
       transform="matrix(0.26458333,0,0,0.26458333,-5.2645323,-1.1005878)"
       aria-label="INCIDENT WAVE&#10;ANGLE&#10;"><path
         style="text-align:center;text-anchor:middle"
         d="m 405.54075,447.51003 v -9.54425 h 1.26302 v 9.54425 z m 5.07656,0 v -9.54425 h 1.29557 l 5.013,7.49347 v -7.49347 h 1.21094 v 9.54425 h -1.29557 l -5.01301,-7.49998 v 7.49998 z m 18.05178,-3.34635 1.26301,0.31901 q -0.39713,1.55599 -1.43228,2.3763 -1.02865,0.8138 -2.51953,0.8138 -1.54296,0 -2.51301,-0.625 -0.96354,-0.63151 -1.47135,-1.82291 -0.5013,-1.19141 -0.5013,-2.55859 0,-1.49088 0.5664,-2.59765 0.57292,-1.11328 1.62109,-1.68619 1.05469,-0.57943 2.3177,-0.57943 1.43229,0 2.40885,0.72917 0.97656,0.72916 1.36067,2.05077 l -1.24348,0.29297 q -0.33203,-1.04166 -0.96354,-1.51692 -0.63151,-0.47526 -1.58854,-0.47526 -1.10026,0 -1.84244,0.52734 -0.73568,0.52734 -1.03516,1.41927 -0.29947,0.88541 -0.29947,1.82942 0,1.21745 0.35156,2.1289 0.35807,0.90495 1.10677,1.35416 0.74869,0.44922 1.62109,0.44922 1.06119,0 1.79687,-0.61198 0.73567,-0.61197 0.99609,-1.8164 z m 4.63384,3.34635 v -9.54425 h 1.26302 v 9.54425 z m 5.08958,0 v -9.54425 h 3.28775 q 1.11328,0 1.69921,0.13672 0.82031,0.1888 1.39974,0.68359 0.75521,0.63802 1.1263,1.63411 0.3776,0.98958 0.3776,2.26562 0,1.08724 -0.2539,1.92708 -0.25391,0.83984 -0.65104,1.39323 -0.39714,0.54687 -0.8724,0.86588 -0.46875,0.3125 -1.13932,0.47526 -0.66406,0.16276 -1.52994,0.16276 z m 1.26301,-1.1263 h 2.03776 q 0.94401,0 1.47786,-0.17578 0.54036,-0.17578 0.85937,-0.49479 0.44922,-0.44922 0.69662,-1.20443 0.2539,-0.76171 0.2539,-1.84244 0,-1.49739 -0.49479,-2.29817 -0.48828,-0.80729 -1.1914,-1.08073 -0.50781,-0.19531 -1.63411,-0.19531 h -2.00521 z m 9.99191,1.1263 v -9.54425 h 6.90102 v 1.1263 h -5.638 v 2.92317 h 5.27993 v 1.11979 h -5.27993 v 3.24869 h 5.85936 v 1.1263 z m 10.45414,0 v -9.54425 h 1.29557 l 5.01301,7.49347 v -7.49347 h 1.21094 v 9.54425 h -1.29557 l -5.01301,-7.49998 v 7.49998 z m 13.67029,0 v -8.41795 h -3.14452 v -1.1263 h 7.56508 v 1.1263 h -3.15754 v 8.41795 z m 14.04633,0 -2.53255,-9.54425 h 1.29557 l 1.45182,6.2565 q 0.23438,0.98307 0.40365,1.95312 0.36458,-1.52995 0.42968,-1.76432 l 1.8164,-6.4453 h 1.52344 l 1.36718,4.83072 q 0.51432,1.79687 0.74219,3.3789 0.18229,-0.90495 0.47526,-2.07682 l 1.49739,-6.1328 h 1.26953 l -2.61718,9.54425 h -1.21745 l -2.01171,-7.27212 q -0.25391,-0.91145 -0.29948,-1.11979 -0.14974,0.65755 -0.27995,1.11979 l -2.02473,7.27212 z m 10.97497,0 3.66536,-9.54425 h 1.36067 l 3.90624,9.54425 h -1.4388 l -1.11328,-2.89062 h -3.99087 l -1.04818,2.89062 z m 2.7539,-3.91926 h 3.23567 l -0.99609,-2.64322 q -0.45573,-1.20443 -0.67708,-1.97917 -0.18229,0.91797 -0.51432,1.82292 z m 10.52576,3.91926 -3.69791,-9.54425 h 1.36719 l 2.48046,6.93358 q 0.29948,0.83333 0.5013,1.56249 0.22135,-0.78124 0.51432,-1.56249 l 2.57812,-6.93358 h 1.28906 l -3.73697,9.54425 z m 7.79139,0 v -9.54425 h 6.90103 v 1.1263 h -5.63801 v 2.92317 h 5.27993 v 1.11979 h -5.27993 v 3.24869 h 5.85936 v 1.1263 z"
         id="path31" /><path
         style="text-align:center;text-anchor:middle"
         d="m 440.17961,464.17665 3.66536,-9.54424 h 1.36067 l 3.90624,9.54424 h -1.43879 l -1.11328,-2.89061 h -3.99088 l -1.04817,2.89061 z m 2.7539,-3.91926 h 3.23567 l -0.99609,-2.64322 q -0.45573,-1.20442 -0.67708,-1.97916 -0.18229,0.91797 -0.51432,1.82291 z m 8.77447,3.91926 v -9.54424 h 1.29556 l 5.01301,7.49347 v -7.49347 h 1.21094 v 9.54424 h -1.29557 l -5.01301,-7.49998 v 7.49998 z m 15.70803,-3.74348 v -1.11978 l 4.04296,-0.007 v 3.54165 q -0.93099,0.74219 -1.92057,1.11979 -0.98958,0.37109 -2.03124,0.37109 -1.40625,0 -2.55859,-0.59895 -1.14583,-0.60547 -1.73177,-1.74479 -0.58593,-1.13932 -0.58593,-2.54557 0,-1.39322 0.57942,-2.59765 0.58594,-1.21093 1.67969,-1.79687 1.09374,-0.58593 2.51952,-0.58593 1.03515,0 1.86849,0.33854 0.83984,0.33203 1.3151,0.93099 0.47526,0.59895 0.72265,1.56249 l -1.13932,0.3125 q -0.21484,-0.72916 -0.53385,-1.14583 -0.31901,-0.41666 -0.91146,-0.66406 -0.59244,-0.25391 -1.3151,-0.25391 -0.86588,0 -1.49739,0.26693 -0.63151,0.26042 -1.02213,0.6901 -0.38412,0.42969 -0.59896,0.94401 -0.36458,0.88542 -0.36458,1.92057 0,1.27604 0.43619,2.13541 0.44271,0.85937 1.28255,1.27604 0.83984,0.41666 1.78385,0.41666 0.82031,0 1.60156,-0.31249 0.78125,-0.31901 1.18489,-0.67709 v -1.77734 z m 7.45285,3.74348 v -9.54424 h 1.26302 v 8.41795 h 4.70051 v 1.12629 z m 9.09347,0 v -9.54424 h 6.90103 v 1.1263 h -5.63801 v 2.92317 h 5.27994 v 1.11979 h -5.27994 v 3.24869 h 5.85936 v 1.12629 z"
         id="path32" /></g><g
       id="text15-2-9-3"
       style="font-size:13.3333px;font-family:Arial;-inkscape-font-specification:'Arial, Normal';letter-spacing:1.6px;white-space:pre;fill:none;stroke:#000000;stroke-width:2.28661"
       transform="matrix(0.26458333,0,0,0.26458333,-22.065569,132.11711)"
       aria-label="APEX OPENING DISTANCE&#10;(AOD)"><path
         style="text-align:center;text-anchor:middle"
         d="m 407.79648,447.51003 3.66536,-9.54425 h 1.36067 l 3.90624,9.54425 h -1.4388 l -1.11328,-2.89062 h -3.99087 l -1.04818,2.89062 z m 2.7539,-3.91926 h 3.23567 l -0.99609,-2.64322 q -0.45573,-1.20443 -0.67708,-1.97917 -0.18229,0.91797 -0.51432,1.82292 z m 8.78748,3.91926 v -9.54425 h 3.60025 q 0.95052,0 1.45182,0.0912 0.70313,0.11718 1.17839,0.44922 0.47526,0.32552 0.76171,0.91796 0.29297,0.59245 0.29297,1.30208 0,1.21745 -0.77474,2.0638 -0.77473,0.83984 -2.79947,0.83984 h -2.44791 v 3.8802 z m 1.26302,-5.0065 h 2.46744 q 1.22396,0 1.73828,-0.45573 0.51432,-0.45573 0.51432,-1.28255 0,-0.59895 -0.30599,-1.02213 -0.29948,-0.42969 -0.79427,-0.5664 -0.31901,-0.0846 -1.17838,-0.0846 h -2.4414 z m 9.25623,5.0065 v -9.54425 h 6.90103 v 1.1263 h -5.63801 v 2.92317 h 5.27993 v 1.11979 h -5.27993 v 3.24869 h 5.85936 v 1.1263 z m 9.49712,0 3.69139,-4.97395 -3.2552,-4.5703 h 1.50391 l 1.73176,2.44791 q 0.54037,0.76172 0.76823,1.17187 0.31901,-0.52083 0.75521,-1.08723 l 1.92056,-2.53255 h 1.3737 l -3.35286,4.49869 3.61327,5.04556 h -1.56249 l -2.40234,-3.40494 q -0.20182,-0.29297 -0.41667,-0.63802 -0.319,0.52083 -0.45572,0.71614 l -2.39583,3.32682 z m 16.38356,-4.64843 q 0,-2.37629 1.27604,-3.71744 1.27603,-1.34765 3.29426,-1.34765 1.32161,0 2.3828,0.63151 1.0612,0.63151 1.61458,1.76432 0.5599,1.1263 0.5599,2.55859 0,1.45182 -0.58594,2.59765 -0.58593,1.14583 -1.66015,1.73827 -1.07422,0.58594 -2.3177,0.58594 -1.34766,0 -2.40885,-0.65104 -1.0612,-0.65104 -1.60807,-1.77734 -0.54687,-1.1263 -0.54687,-2.38281 z m 1.30208,0.0195 q 0,1.72526 0.92447,2.72135 0.93099,0.98958 2.33073,0.98958 1.42577,0 2.34374,-1.0026 0.92448,-1.0026 0.92448,-2.84504 0,-1.16537 -0.39714,-2.03125 -0.39062,-0.87239 -1.15234,-1.34765 -0.7552,-0.48177 -1.69921,-0.48177 -1.34114,0 -2.31119,0.92448 -0.96354,0.91796 -0.96354,3.0729 z m 11.0531,4.6289 v -9.54425 h 3.60025 q 0.95052,0 1.45182,0.0912 0.70312,0.11718 1.17838,0.44922 0.47526,0.32552 0.76172,0.91796 0.29297,0.59245 0.29297,1.30208 0,1.21745 -0.77474,2.0638 -0.77474,0.83984 -2.79947,0.83984 h -2.44791 v 3.8802 z m 1.26302,-5.0065 h 2.46744 q 1.22395,0 1.73828,-0.45573 0.51432,-0.45573 0.51432,-1.28255 0,-0.59895 -0.30599,-1.02213 -0.29948,-0.42969 -0.79427,-0.5664 -0.31901,-0.0846 -1.17838,-0.0846 h -2.4414 z m 9.25622,5.0065 v -9.54425 h 6.90103 v 1.1263 h -5.63801 v 2.92317 h 5.27994 v 1.11979 h -5.27994 v 3.24869 h 5.85936 v 1.1263 z m 10.45415,0 v -9.54425 h 1.29557 l 5.01301,7.49347 v -7.49347 h 1.21093 V 447.51 h -1.29557 l -5.013,-7.49998 V 447.51 Z m 11.45675,0 v -9.54425 h 1.26301 V 447.51 Z m 5.07655,0 v -9.54425 h 1.29557 l 5.01301,7.49347 v -7.49347 h 1.21094 V 447.51 h -1.29557 l -5.01301,-7.49998 V 447.51 Z m 15.70803,-3.74348 v -1.11979 l 4.04296,-0.007 v 3.54166 q -0.93099,0.74218 -1.92057,1.11979 -0.98958,0.37109 -2.03124,0.37109 -1.40625,0 -2.55859,-0.59896 -1.14583,-0.60547 -1.73177,-1.74479 -0.58593,-1.13932 -0.58593,-2.54556 0,-1.39323 0.57942,-2.59765 0.58594,-1.21094 1.67969,-1.79687 1.09374,-0.58594 2.51952,-0.58594 1.03516,0 1.86849,0.33854 0.83984,0.33203 1.3151,0.93099 0.47526,0.59896 0.72265,1.5625 l -1.13932,0.3125 q -0.21484,-0.72917 -0.53385,-1.14584 -0.31901,-0.41666 -0.91146,-0.66406 -0.59244,-0.2539 -1.3151,-0.2539 -0.86588,0 -1.49739,0.26692 -0.63151,0.26042 -1.02213,0.69011 -0.38412,0.42968 -0.59896,0.94401 -0.36458,0.88541 -0.36458,1.92056 0,1.27604 0.4362,2.13541 0.4427,0.85938 1.28254,1.27604 0.83985,0.41667 1.78385,0.41667 0.82031,0 1.60156,-0.3125 0.78125,-0.31901 1.1849,-0.67708 v -1.77734 z"
         id="path16" /><path
         style="text-align:center;text-anchor:middle"
         d="m 429.21584,464.17665 v -9.54424 h 3.28775 q 1.11328,0 1.69921,0.13672 0.82031,0.1888 1.39974,0.68359 0.75521,0.63802 1.1263,1.63411 0.3776,0.98958 0.3776,2.26562 0,1.08723 -0.2539,1.92708 -0.25391,0.83984 -0.65104,1.39322 -0.39714,0.54688 -0.8724,0.86589 -0.46875,0.31249 -1.13932,0.47525 -0.66406,0.16276 -1.52994,0.16276 z m 1.26301,-1.12629 h 2.03776 q 0.94401,0 1.47786,-0.17579 0.54036,-0.17578 0.85937,-0.49479 0.44922,-0.44921 0.69662,-1.20442 0.2539,-0.76172 0.2539,-1.84244 0,-1.4974 -0.49479,-2.29817 -0.48828,-0.80729 -1.1914,-1.08073 -0.50781,-0.19531 -1.63411,-0.19531 h -2.00521 z m 10.18071,1.12629 v -9.54424 h 1.26302 v 9.54424 z m 4.65989,-3.06639 1.1914,-0.10417 q 0.0846,0.71614 0.39063,1.17838 0.3125,0.45573 0.96354,0.74219 0.65104,0.27994 1.46484,0.27994 0.72265,0 1.27603,-0.21484 0.55339,-0.21484 0.82031,-0.58593 0.27344,-0.37761 0.27344,-0.82031 0,-0.44922 -0.26042,-0.78125 -0.26041,-0.33854 -0.85937,-0.56641 -0.38411,-0.14974 -1.69921,-0.46224 -1.3151,-0.31901 -1.84245,-0.59895 -0.68359,-0.35807 -1.02213,-0.88542 -0.33203,-0.53385 -0.33203,-1.1914 0,-0.72265 0.41016,-1.34765 0.41015,-0.63151 1.19791,-0.95703 0.78776,-0.32552 1.7513,-0.32552 1.06119,0 1.86848,0.34505 0.8138,0.33854 1.25,1.0026 0.4362,0.66406 0.46875,1.5039 l -1.21094,0.0912 q -0.0976,-0.90495 -0.66406,-1.36719 -0.55989,-0.46223 -1.66015,-0.46223 -1.14583,0 -1.67317,0.42317 -0.52083,0.41667 -0.52083,1.00911 0,0.51433 0.37109,0.84636 0.36458,0.33203 1.90104,0.68359 1.54296,0.34505 2.11588,0.60547 0.83333,0.38411 1.23046,0.97656 0.39714,0.58593 0.39714,1.35416 0,0.76172 -0.4362,1.4388 -0.4362,0.67057 -1.25651,1.04817 -0.8138,0.37109 -1.83593,0.37109 -1.29557,0 -2.17447,-0.3776 -0.8724,-0.3776 -1.3737,-1.13281 -0.49479,-0.76172 -0.52083,-1.71874 z m 13.35127,3.06639 v -8.41794 h -3.14452 v -1.1263 h 7.56508 v 1.1263 h -3.15754 v 8.41794 z m 5.27838,0 3.66535,-9.54424 h 1.36068 l 3.90624,9.54424 h -1.4388 l -1.11328,-2.89061 h -3.99087 l -1.04818,2.89061 z m 2.7539,-3.91926 h 3.23567 l -0.99609,-2.64322 q -0.45573,-1.20442 -0.67709,-1.97916 -0.18229,0.91797 -0.51432,1.82291 z m 8.77446,3.91926 v -9.54424 h 1.29557 l 5.01301,7.49347 v -7.49347 h 1.21093 v 9.54424 h -1.29557 l -5.01301,-7.49998 v 7.49998 z m 18.05178,-3.34634 1.26302,0.31901 q -0.39714,1.55598 -1.43229,2.37629 -1.02864,0.8138 -2.51953,0.8138 -1.54296,0 -2.51301,-0.62499 -0.96354,-0.63151 -1.47135,-1.82292 -0.5013,-1.1914 -0.5013,-2.55858 0,-1.49088 0.5664,-2.59765 0.57292,-1.11328 1.62109,-1.6862 1.05469,-0.57942 2.31771,-0.57942 1.43228,0 2.40884,0.72916 0.97656,0.72917 1.36068,2.05078 l -1.24349,0.29297 q -0.33203,-1.04167 -0.96354,-1.51693 -0.63151,-0.47526 -1.58854,-0.47526 -1.10025,0 -1.84244,0.52735 -0.73567,0.52734 -1.03515,1.41926 -0.29948,0.88542 -0.29948,1.82943 0,1.21744 0.35156,2.1289 0.35807,0.90494 1.10677,1.35416 0.74869,0.44922 1.62109,0.44922 1.06119,0 1.79687,-0.61198 0.73567,-0.61198 0.99609,-1.8164 z m 4.44504,3.34634 v -9.54424 h 6.90103 v 1.1263 h -5.63801 v 2.92317 h 5.27994 v 1.11979 h -5.27994 v 3.24869 h 5.85936 v 1.12629 z"
         id="path17" /><path
         style="text-align:center;text-anchor:middle"
         d="m 448.03181,483.64926 q -0.97005,-1.22395 -1.64062,-2.86457 -0.67057,-1.64062 -0.67057,-3.39843 0,-1.54948 0.5013,-2.96874 0.58594,-1.64714 1.80989,-3.28125 h 0.83984 q -0.78776,1.35417 -1.04166,1.93359 -0.39714,0.89844 -0.625,1.875 -0.27995,1.21744 -0.27995,2.44791 0,3.1315 1.94661,6.25649 z m 2.90208,-2.80598 3.66536,-9.54425 h 1.36067 l 3.90624,9.54425 h -1.4388 l -1.11328,-2.89062 h -3.99087 l -1.04818,2.89062 z m 2.7539,-3.91926 h 3.23567 l -0.99609,-2.64322 q -0.45573,-1.20443 -0.67708,-1.97916 -0.1823,0.91796 -0.51433,1.82291 z m 8.40337,-0.72917 q 0,-2.37629 1.27604,-3.71743 1.27604,-1.34766 3.29426,-1.34766 1.32161,0 2.38281,0.63151 1.06119,0.63151 1.61458,1.76432 0.55989,1.1263 0.55989,2.55859 0,1.45182 -0.58594,2.59765 -0.58593,1.14583 -1.66015,1.73827 -1.07421,0.58594 -2.3177,0.58594 -1.34765,0 -2.40885,-0.65104 -1.06119,-0.65104 -1.60807,-1.77734 -0.54687,-1.1263 -0.54687,-2.38281 z m 1.30208,0.0195 q 0,1.72525 0.92448,2.72134 0.93098,0.98958 2.33072,0.98958 1.42578,0 2.34374,-1.0026 0.92448,-1.0026 0.92448,-2.84504 0,-1.16536 -0.39713,-2.03125 -0.39063,-0.87239 -1.15235,-1.34765 -0.7552,-0.48177 -1.69921,-0.48177 -1.34114,0 -2.31119,0.92448 -0.96354,0.91796 -0.96354,3.07291 z m 11.0531,4.62889 v -9.54425 h 3.28775 q 1.11328,0 1.69922,0.13672 0.82031,0.1888 1.39973,0.68359 0.75521,0.63802 1.1263,1.63411 0.37761,0.98959 0.37761,2.26562 0,1.08724 -0.25391,1.92708 -0.25391,0.83984 -0.65104,1.39323 -0.39713,0.54687 -0.87239,0.86588 -0.46875,0.3125 -1.13932,0.47526 -0.66407,0.16276 -1.52995,0.16276 z m 1.26302,-1.1263 h 2.03775 q 0.94401,0 1.47786,-0.17578 0.54037,-0.17578 0.85938,-0.49479 0.44921,-0.44922 0.69661,-1.20442 0.25391,-0.76172 0.25391,-1.84245 0,-1.49739 -0.4948,-2.29817 -0.48828,-0.80729 -1.1914,-1.08072 -0.50781,-0.19532 -1.63411,-0.19532 h -2.0052 z m 10.58435,3.93228 h -0.83984 q 1.94661,-3.12499 1.94661,-6.25649 0,-1.22396 -0.27995,-2.42838 -0.22135,-0.97656 -0.61849,-1.875 -0.2539,-0.58593 -1.04817,-1.95312 h 0.83984 q 1.22396,1.63411 1.80989,3.28125 0.5013,1.41926 0.5013,2.96874 0,1.75781 -0.67708,3.39843 -0.67057,1.64062 -1.63411,2.86457 z"
         id="path21" /></g><path
       style="opacity:0.86;fill:none;stroke:#000000;stroke-width:0.492891;stroke-dasharray:none;stroke-dashoffset:0;stroke-opacity:1;marker-start:url(#marker19);marker-end:url(#Triangle)"
       d="m 80.348139,182.52871 c -36.845781,20.02534 -36.845781,20.02534 -36.845781,20.02534 l 5.559188,-15.4913"
       id="path18" /><path
       d="m 259.7617,599.9879 q 0.8789,0.60546 1.62109,0.88541 l -0.3711,0.8789 q -1.02864,-0.37109 -2.05077,-1.17187 -1.0612,0.59245 -2.34375,0.59245 -1.29557,0 -2.35025,-0.625 -1.05468,-0.625 -1.6276,-1.75781 -0.5664,-1.13281 -0.5664,-2.55207 0,-1.41276 0.57291,-2.57161 0.57292,-1.15885 1.6276,-1.76432 1.0612,-0.60547 2.36979,-0.60547 1.32161,0 2.3828,0.63151 1.0612,0.625 1.61458,1.75781 0.5599,1.1263 0.5599,2.54556 0,1.17839 -0.35808,2.1224 -0.35807,0.93749 -1.08072,1.63411 z m -2.77994,-1.61458 q 1.09374,0.30599 1.80338,0.91145 1.11328,-1.01562 1.11328,-3.05338 0,-1.15885 -0.39714,-2.02473 -0.39062,-0.86588 -1.15234,-1.34114 -0.75521,-0.48177 -1.69921,-0.48177 -1.41276,0 -2.34375,0.97005 -0.93098,0.96354 -0.93098,2.88411 0,1.86197 0.91796,2.85806 0.92448,0.99609 2.35677,0.99609 0.67708,0 1.27604,-0.2539 -0.59245,-0.38412 -1.25,-0.54688 z m 13.78096,-6.90754 h 1.26301 v 5.51431 q 0,1.4388 -0.32552,2.28515 -0.32552,0.84635 -1.17838,1.38021 -0.84635,0.52734 -2.22656,0.52734 -1.34114,0 -2.194,-0.46224 -0.85286,-0.46224 -1.21744,-1.33463 -0.36459,-0.87891 -0.36459,-2.39583 v -5.51431 h 1.26302 v 5.5078 q 0,1.24349 0.22786,1.83593 0.23438,0.58594 0.79427,0.90495 0.56641,0.31901 1.38021,0.31901 1.39322,0 1.98567,-0.63151 0.59245,-0.63151 0.59245,-2.42838 z m 3.9177,9.54425 3.66535,-9.54425 h 1.36068 l 3.90624,9.54425 h -1.4388 l -1.11328,-2.89062 h -3.99088 l -1.04817,2.89062 z m 2.7539,-3.91926 h 3.23567 l -0.99609,-2.64322 q -0.45573,-1.20443 -0.67709,-1.97917 -0.18229,0.91797 -0.51432,1.82292 z m 8.7354,3.91926 v -9.54425 h 1.26301 v 8.41795 h 4.70051 v 1.1263 z m 9.28227,0 v -9.54425 h 1.26302 v 9.54425 z m 4.65989,-3.0664 1.1914,-0.10417 q 0.0846,0.71615 0.39062,1.17839 0.3125,0.45572 0.96354,0.74218 0.65104,0.27995 1.46484,0.27995 0.72266,0 1.27604,-0.21484 0.55339,-0.21485 0.82031,-0.58594 0.27344,-0.3776 0.27344,-0.82031 0,-0.44922 -0.26042,-0.78125 -0.26041,-0.33854 -0.85937,-0.5664 -0.38411,-0.14974 -1.69921,-0.46224 -1.3151,-0.31901 -1.84245,-0.59896 -0.68359,-0.35807 -1.02213,-0.88541 -0.33203,-0.53386 -0.33203,-1.19141 0,-0.72265 0.41015,-1.34765 0.41016,-0.63151 1.19792,-0.95703 0.78776,-0.32552 1.7513,-0.32552 1.06119,0 1.86848,0.34505 0.8138,0.33854 1.25,1.0026 0.43619,0.66407 0.46875,1.50391 l -1.21094,0.0911 q -0.0977,-0.90494 -0.66406,-1.36718 -0.55989,-0.46224 -1.66015,-0.46224 -1.14583,0 -1.67317,0.42318 -0.52084,0.41666 -0.52084,1.00911 0,0.51432 0.3711,0.84635 0.36458,0.33203 1.90103,0.68359 1.54297,0.34505 2.11588,0.60547 0.83334,0.38411 1.23047,0.97656 0.39713,0.58594 0.39713,1.35416 0,0.76172 -0.43619,1.4388 -0.4362,0.67057 -1.25651,1.04818 -0.8138,0.37109 -1.83593,0.37109 -1.29557,0 -2.17448,-0.3776 -0.87239,-0.37761 -1.37369,-1.13281 -0.49479,-0.76172 -0.52083,-1.71875 z m 13.61168,3.0664 v -4.04296 l -3.67837,-5.50129 h 1.53645 l 1.88151,2.8776 q 0.52083,0.80729 0.97005,1.61458 0.42968,-0.7487 1.04166,-1.6862 l 1.84896,-2.80598 h 1.47135 l -3.80859,5.50129 v 4.04296 z m 7.37473,-3.0664 1.19141,-0.10417 q 0.0846,0.71615 0.39062,1.17839 0.3125,0.45572 0.96354,0.74218 0.65104,0.27995 1.46484,0.27995 0.72265,0 1.27604,-0.21484 0.55338,-0.21485 0.82031,-0.58594 0.27344,-0.3776 0.27344,-0.82031 0,-0.44922 -0.26042,-0.78125 -0.26042,-0.33854 -0.85937,-0.5664 -0.38412,-0.14974 -1.69922,-0.46224 -1.3151,-0.31901 -1.84244,-0.59896 -0.68359,-0.35807 -1.02213,-0.88541 -0.33203,-0.53386 -0.33203,-1.19141 0,-0.72265 0.41015,-1.34765 0.41016,-0.63151 1.19791,-0.95703 0.78776,-0.32552 1.7513,-0.32552 1.0612,0 1.86849,0.34505 0.8138,0.33854 1.24999,1.0026 0.4362,0.66407 0.46875,1.50391 l -1.21093,0.0911 q -0.0977,-0.90494 -0.66406,-1.36718 -0.5599,-0.46224 -1.66015,-0.46224 -1.14584,0 -1.67318,0.42318 -0.52083,0.41666 -0.52083,1.00911 0,0.51432 0.37109,0.84635 0.36459,0.33203 1.90104,0.68359 1.54296,0.34505 2.11588,0.60547 0.83333,0.38411 1.23047,0.97656 0.39713,0.58594 0.39713,1.35416 0,0.76172 -0.4362,1.4388 -0.43619,0.67057 -1.2565,1.04818 -0.8138,0.37109 -1.83594,0.37109 -1.29557,0 -2.17447,-0.3776 -0.87239,-0.37761 -1.37369,-1.13281 -0.4948,-0.76172 -0.52084,-1.71875 z m 16.18825,3.0664 v -9.54425 h 1.90104 l 2.25911,6.7578 q 0.31249,0.94401 0.45572,1.41275 0.16276,-0.52083 0.50781,-1.52994 l 2.28516,-6.64061 h 1.69921 v 9.54425 h -1.21745 v -7.98826 l -2.77343,7.98826 h -1.13932 l -2.76041,-8.12498 v 8.12498 z m 11.69763,0 3.66535,-9.54425 h 1.36068 l 3.90624,9.54425 h -1.4388 l -1.11328,-2.89062 h -3.99087 l -1.04818,2.89062 z m 2.7539,-3.91926 h 3.23567 l -0.99609,-2.64322 q -0.45573,-1.20443 -0.67709,-1.97917 -0.18229,0.91797 -0.51432,1.82292 z m 8.80701,3.91926 v -9.54425 h 4.23176 q 1.27604,0 1.9401,0.26042 0.66406,0.2539 1.0612,0.90494 0.39713,0.65104 0.39713,1.4388 0,1.01562 -0.65755,1.71224 -0.65755,0.69661 -2.03124,0.88541 0.5013,0.24089 0.76172,0.47526 0.55338,0.50781 1.04817,1.26953 l 1.66015,2.59765 h -1.58854 l -1.26301,-1.98567 q -0.55339,-0.85938 -0.91146,-1.3151 -0.35807,-0.45573 -0.64453,-0.63802 -0.27995,-0.18229 -0.57291,-0.25391 -0.21485,-0.0456 -0.70313,-0.0456 H 361.8081 V 601.01 Z m 1.26302,-5.33202 h 2.71484 q 0.86588,0 1.35416,-0.17578 0.48828,-0.18229 0.74219,-0.57292 0.2539,-0.39713 0.2539,-0.85937 0,-0.67708 -0.49479,-1.11328 -0.48828,-0.43619 -1.54947,-0.43619 h -3.02083 z m 9.89424,5.33202 v -9.54425 h 1.26302 v 4.73306 l 4.73957,-4.73306 h 1.71224 l -4.0039,3.86718 4.17968,5.67707 h -1.66666 l -3.39843,-4.83072 -1.5625,1.52344 v 3.30728 z m 10.57134,0 v -9.54425 h 6.90102 v 1.1263 h -5.638 v 2.92317 h 5.27993 v 1.11979 h -5.27993 v 3.24869 h 5.85936 v 1.1263 z m 10.4867,0 v -9.54425 h 4.23176 q 1.27604,0 1.9401,0.26042 0.66406,0.2539 1.06119,0.90494 0.39714,0.65104 0.39714,1.4388 0,1.01562 -0.65755,1.71224 -0.65755,0.69661 -2.03125,0.88541 0.5013,0.24089 0.76172,0.47526 0.55338,0.50781 1.04817,1.26953 l 1.66016,2.59765 h -1.58854 l -1.26302,-1.98567 q -0.55338,-0.85938 -0.91146,-1.3151 -0.35807,-0.45573 -0.64453,-0.63802 -0.27994,-0.18229 -0.57291,-0.25391 -0.21484,-0.0456 -0.70312,-0.0456 H 394.0234 V 601.01 Z m 1.26302,-5.33202 h 2.71483 q 0.86589,0 1.35417,-0.17578 0.48828,-0.18229 0.74218,-0.57292 0.25391,-0.39713 0.25391,-0.85937 0,-0.67708 -0.49479,-1.11328 -0.48828,-0.43619 -1.54948,-0.43619 h -3.02082 z m 9.51664,2.26562 1.19141,-0.10417 q 0.0846,0.71615 0.39062,1.17839 0.3125,0.45572 0.96354,0.74218 0.65104,0.27995 1.46484,0.27995 0.72265,0 1.27604,-0.21484 0.55338,-0.21485 0.82031,-0.58594 0.27343,-0.3776 0.27343,-0.82031 0,-0.44922 -0.26041,-0.78125 -0.26042,-0.33854 -0.85937,-0.5664 -0.38412,-0.14974 -1.69922,-0.46224 -1.3151,-0.31901 -1.84244,-0.59896 -0.68359,-0.35807 -1.02213,-0.88541 -0.33203,-0.53386 -0.33203,-1.19141 0,-0.72265 0.41015,-1.34765 0.41016,-0.63151 1.19791,-0.95703 0.78776,-0.32552 1.7513,-0.32552 1.0612,0 1.86849,0.34505 0.8138,0.33854 1.24999,1.0026 0.4362,0.66407 0.46875,1.50391 l -1.21093,0.0911 q -0.0977,-0.90494 -0.66406,-1.36718 -0.5599,-0.46224 -1.66016,-0.46224 -1.14583,0 -1.67317,0.42318 -0.52083,0.41666 -0.52083,1.00911 0,0.51432 0.37109,0.84635 0.36459,0.33203 1.90104,0.68359 1.54296,0.34505 2.11588,0.60547 0.83333,0.38411 1.23047,0.97656 0.39713,0.58594 0.39713,1.35416 0,0.76172 -0.4362,1.4388 -0.43619,0.67057 -1.2565,1.04818 -0.8138,0.37109 -1.83594,0.37109 -1.29557,0 -2.17447,-0.3776 -0.87239,-0.37761 -1.3737,-1.13281 -0.49479,-0.76172 -0.52083,-1.71875 z"
       id="text16-5"
       style="font-size:13.3333px;font-family:Arial;-inkscape-font-specification:'Arial, Normal';letter-spacing:1.6px;white-space:pre;shape-padding:5.5;fill:none;stroke:#000000;stroke-width:2.28661"
       transform="matrix(0.26458333,0,0,0.26458333,-52.212124,48.510504)"
       aria-label="QUALISYS MARKERS " /><rect
       style="opacity:0.86;fill:#000101;fill-opacity:0.996567;stroke:none;stroke-width:0.263841;stroke-dasharray:none;stroke-dashoffset:0;stroke-opacity:1"
       id="rect20"
       width="178.99062"
       height="1.3229188"
       x="12.964583"
       y="47.49271" /></g></svg>
